<svg width="68" height="69" viewBox="0 0 68 69" fill="none" xmlns="http://www.w3.org/2000/svg">
<g clip-path="url(#clip0_878_27259)">
<path d="M34.4778 1.07874V3.60992L38.5308 3.74601V17.545C38.5308 18.6337 37.6301 19.5319 36.4761 19.5319C35.3221 19.5319 34.4215 18.6609 34.4215 17.545V13.8707C34.4215 12.7821 33.5208 11.8839 32.3668 11.8839C31.2128 11.8839 30.3966 12.7276 30.3403 13.7619V23.805C30.3403 23.805 30.3403 23.8594 30.3403 23.9138V24.6487C30.3403 25.7374 29.4396 26.6355 28.2857 26.6355C27.1317 26.6355 26.231 25.7646 26.231 24.6487V17.4362C26.231 17.4362 26.231 17.4362 26.231 17.409C26.2029 16.3475 25.3022 15.4766 24.2045 15.4766C23.1068 15.4766 22.1498 16.3475 22.1498 17.4634V20.049C22.1498 21.1377 21.2492 22.0359 20.0952 22.0359C18.9412 22.0359 18.0405 21.1649 18.0405 20.049V12.8365C18.0405 11.7478 17.1117 10.8497 15.9859 10.8497C14.86 10.8497 13.9312 9.95149 13.9312 8.86281V1.07874H8.18945V23.6961C14.4379 30.7453 23.6697 35.2361 33.9993 35.2361C44.3288 35.2361 53.5888 30.7453 59.8091 23.6961V1.07874H34.4778Z" fill="#CCD4D9"/>
<path d="M8.1897 27.6971V68.9318H59.8093V27.6971C53.1669 34.0387 44.0476 37.958 33.9995 37.958C23.9514 37.958 14.8321 34.0387 8.1897 27.6971Z" fill="#CCD4D9"/>
<path d="M34.0003 35.2361C15.2551 35.2361 0 20.4845 0 2.35792V0.99707H68.0006V2.35792C68.0006 20.4845 52.7455 35.2361 34.0003 35.2361ZM2.87089 3.71878C3.60268 19.6952 17.2816 32.4872 34.0003 32.4872C50.719 32.4872 64.3979 19.7224 65.1297 3.71878H2.87089Z" fill="#CCD4D9"/>
</g>
<defs>
<clipPath id="clip0_878_27259">
<rect width="68" height="68" fill="white" transform="translate(0 0.99707)"/>
</clipPath>
</defs>
</svg>
