<svg width="400" height="177" viewBox="0 0 400 177" fill="none" xmlns="http://www.w3.org/2000/svg">
<path d="M118.802 105.479C119.403 105.479 119.704 107.081 119.704 110.287C119.704 112.491 119.504 114.594 119.103 116.598C118.902 118.601 118.602 119.603 118.201 119.603L98.365 118.701V160.472C98.365 162.475 97.5635 163.878 95.9606 164.679L72.2173 176.399C71.0151 176.8 70.414 177 70.414 177C69.813 177 69.5124 176.199 69.5124 174.596V117.8C57.4905 117.599 35.25 117.499 2.7908 117.499C1.78897 117.499 0.98751 117.098 0.386414 116.297C-0.214681 115.496 -0.114488 114.694 0.686973 113.893L93.8568 0.901529C94.2575 0.500849 94.8586 0.30051 95.66 0.30051C96.2611 0.30051 96.8622 0.500849 97.4633 0.901529C98.0644 1.10187 98.365 1.50255 98.365 2.10357V106.08C102.372 106.08 109.185 105.879 118.802 105.479ZM20.8236 107.282C44.066 107.282 60.2956 107.182 69.5124 106.981V46.2784L19.3209 105.178C18.1187 106.581 18.6196 107.282 20.8236 107.282Z" fill="#5C7484"/>
<path d="M201.77 123.81C189.347 123.81 178.227 121.105 168.409 115.696C158.792 110.287 151.178 102.874 145.568 93.4584C140.158 83.8421 137.453 73.1239 137.453 61.3039C137.453 49.4839 140.158 38.966 145.568 29.7504C151.178 20.3345 158.792 13.0221 168.409 7.81324C178.227 2.60441 189.347 0 201.77 0C214.193 0 225.213 2.70459 234.83 8.11376C244.448 13.3226 251.861 20.635 257.071 30.0509C262.481 39.4669 265.185 50.0849 265.185 61.9049C265.185 73.725 262.481 84.3429 257.071 93.7589C251.661 103.175 244.147 110.587 234.53 115.997C224.912 121.205 213.992 123.81 201.77 123.81ZM204.775 117.499C213.992 117.499 220.905 112.992 225.513 103.976C230.322 94.961 232.726 82.3396 232.726 66.1121C232.726 45.8778 229.52 30.8523 223.109 21.0357C216.897 11.219 208.983 6.31069 199.365 6.31069C189.948 6.31069 182.635 11.0187 177.426 20.4346C172.216 29.6503 169.611 42.1715 169.611 57.9983C169.611 75.8285 172.817 90.253 179.229 101.272C185.64 112.09 194.156 117.499 204.775 117.499Z" fill="#5C7484"/>
<path d="M399.098 105.479C399.699 105.479 400 107.081 400 110.287C400 112.491 399.8 114.594 399.399 116.598C399.199 118.601 398.898 119.603 398.497 119.603L378.661 118.701V160.472C378.661 162.475 377.86 163.878 376.257 164.679L352.513 176.399C351.311 176.8 350.71 177 350.71 177C350.109 177 349.809 176.199 349.809 174.596V117.8C337.787 117.599 315.546 117.499 283.087 117.499C282.085 117.499 281.284 117.098 280.682 116.297C280.081 115.496 280.182 114.694 280.983 113.893L374.153 0.901529C374.554 0.500849 375.155 0.30051 375.956 0.30051C376.557 0.30051 377.158 0.500849 377.759 0.901529C378.361 1.10187 378.661 1.50255 378.661 2.10357V106.08C382.668 106.08 389.481 105.879 399.098 105.479ZM301.12 107.282C324.362 107.282 340.592 107.182 349.809 106.981V46.2784L299.617 105.178C298.415 106.581 298.916 107.282 301.12 107.282Z" fill="#5C7484"/>
</svg>
