<svg width="68" height="69" viewBox="0 0 68 69" fill="none" xmlns="http://www.w3.org/2000/svg">
<path d="M64.3282 13.6395C63.0217 13.3099 61.63 13.4747 60.437 14.1339C59.2725 14.8205 58.4204 15.8917 58.0512 17.1551L52.6547 38.5781C52.257 40.281 51.2629 41.7916 49.8428 42.8628C48.4227 43.9339 46.6901 44.5107 44.8723 44.5107H23.0874C21.298 44.5107 19.537 43.9339 18.1169 42.8628C16.6967 41.7916 15.7026 40.281 15.305 38.5781L9.90846 17.1551C9.65283 16.1114 9.02797 15.1501 8.14748 14.491C7.267 13.8318 6.15929 13.4747 5.05158 13.5022C4.36991 13.5022 3.68824 13.6395 3.03498 13.8592C1.95567 14.4086 1.07519 15.2875 0.592337 16.3586C0.0810868 17.4298 -0.0041216 18.6382 0.279906 19.7918L5.67644 41.2148C7.09658 46.5706 11.1014 50.9376 16.4411 52.97L12.4363 61.9238C12.2091 62.5005 12.4363 63.1597 12.9476 63.4893H13.686C14.0269 63.4893 14.3393 63.3794 14.5665 63.1322L22.0933 53.9313H45.8948L53.4216 63.1322C53.6488 63.3794 53.9612 63.5168 54.302 63.4893H55.0405C55.5518 63.1322 55.779 62.5005 55.5518 61.9238L51.547 52.97C56.9151 50.9925 60.9199 46.5981 62.3116 41.2148L67.7082 19.7918C68.049 18.5284 67.8786 17.21 67.2537 16.0839C66.6289 14.9304 65.578 14.079 64.3282 13.6395Z" fill="#CCD4D9"/>
<path d="M12.4938 16.6606L17.8904 38.0836C18.1744 39.2372 18.8561 40.2534 19.7934 40.9675C20.7307 41.6816 21.9236 42.0936 23.1449 42.0936H44.9298C46.1512 42.0936 47.3157 41.7091 48.2814 40.9675C49.2471 40.226 49.9003 39.2372 50.1844 38.0836L55.6945 16.6606C56.0637 14.6831 57.3703 12.9802 59.1881 12.0464L61.3183 11.195C61.8863 11.14 62.3124 10.6731 62.3124 10.0964V9.60198C62.3124 8.31111 61.7727 7.07516 60.8354 6.1688C59.8981 5.26244 58.62 4.7406 57.2851 4.7406H10.7329C9.39793 4.7406 8.11981 5.26244 7.18251 6.1688C6.24522 7.07516 5.70557 8.31111 5.70557 9.60198V10.0964C5.70557 10.6457 6.13161 11.1126 6.69966 11.195L8.46064 11.7992C10.4488 12.788 11.9258 14.5458 12.4654 16.6331L12.4938 16.6606Z" fill="#CCD4D9"/>
</svg>
