<svg width="68" height="69" viewBox="0 0 68 69" fill="none" xmlns="http://www.w3.org/2000/svg">
<g clip-path="url(#clip0_878_27267)">
<path fill-rule="evenodd" clip-rule="evenodd" d="M67.9706 11.9347C67.9706 5.48877 62.5519 0.244963 55.8876 0.236328H12.11C5.44673 0.245032 0.0285645 5.48877 0.0285645 11.9347C0.0285645 12.2318 0.0409418 12.5288 0.0640068 12.8247L0.05838 12.8253C0.102823 18.6152 4.71195 23.1392 10.5931 23.1392C16.4017 23.1392 21.1285 18.3905 21.1285 12.5544C21.1285 8.33838 17.7192 4.90838 13.5297 4.90838C9.33959 4.90838 5.93093 8.33782 5.93093 12.5544C5.93093 15.1499 8.02311 17.2618 10.5936 17.2618C13.164 17.2618 15.2562 15.1499 15.2562 12.5544C15.2562 11.5795 14.4821 10.7859 13.5297 10.7859C12.5773 10.7859 11.8032 11.5796 11.8032 12.5544H9.38352C9.38352 10.2896 11.2434 8.44604 13.5297 8.44604C15.816 8.44604 17.6759 10.2891 17.6759 12.5544C17.6759 16.4397 14.499 19.6016 10.5941 19.6016C6.68934 19.6016 3.51241 16.4398 3.51241 12.5544C3.51241 7.12579 7.8847 2.70351 13.3019 2.58054L13.3002 2.54354H55.2992V2.61046C60.4361 3.03316 64.4878 7.32701 64.4878 12.5538C64.4878 16.4391 61.3109 19.601 57.4061 19.601C53.5013 19.601 50.3243 16.4392 50.3243 12.5538C50.3243 10.3158 52.1848 8.49448 54.4705 8.49448C56.758 8.49448 58.6167 10.3153 58.6167 12.5538H56.197C56.197 11.5898 55.4398 10.8342 54.4705 10.8342C53.5035 10.8342 52.744 11.5898 52.744 12.5538C52.744 15.1493 54.8362 17.2612 57.4067 17.2612C59.9787 17.2612 62.0693 15.1493 62.0693 12.5538C62.0693 8.3378 58.6601 4.9078 54.4705 4.9078C50.2804 4.9078 46.8718 8.33725 46.8718 12.5538C46.8718 18.3899 51.5985 23.1387 57.4071 23.1387C63.2889 23.1387 67.8981 18.6136 67.9424 12.8247L67.9374 12.8242C67.9576 12.5293 67.9706 12.2323 67.9706 11.9347Z" fill="#CCD4D9"/>
<path fill-rule="evenodd" clip-rule="evenodd" d="M48.7286 22.1234C46.1091 19.7565 44.4502 16.3498 44.4502 12.5543C44.4502 9.47466 45.8583 6.71704 48.0648 4.88318H19.932C22.1383 6.71649 23.5466 9.47466 23.5466 12.5543C23.5466 16.3336 21.9022 19.7287 19.3003 22.094C19.4139 22.0881 19.5236 22.0668 19.6373 22.0668C21.5736 22.0668 23.2918 22.9699 24.3787 24.3599C25.469 22.9715 27.1871 22.0668 29.1139 22.0668C31.0487 22.0668 32.7655 22.9683 33.853 24.3565C34.9444 22.9704 36.6603 22.0668 38.5854 22.0668C40.501 22.0668 42.2016 22.9503 43.2908 24.3136C44.3827 22.9389 46.0963 22.0668 48.0131 22.0668C48.255 22.0663 48.4912 22.0951 48.7292 22.1234L48.7286 22.1234Z" fill="#CCD4D9"/>
<path fill-rule="evenodd" clip-rule="evenodd" d="M19.6387 24.407C18.7267 24.407 17.8479 24.7601 17.1965 25.3639V69.6239H23.1672V27.8192C23.1672 25.9374 21.5847 24.407 19.6387 24.407Z" fill="#CCD4D9"/>
<path fill-rule="evenodd" clip-rule="evenodd" d="M38.5865 24.4062C36.6693 24.4062 35.0911 25.9105 35.0613 27.7629C35.0613 27.7808 35.063 27.7993 35.063 27.8173V68.2456H42.1217V27.8173H42.1155C42.1149 25.9366 40.5319 24.4062 38.5865 24.4062Z" fill="#CCD4D9"/>
<path fill-rule="evenodd" clip-rule="evenodd" d="M44.541 27.2987L44.541 68.1767H50.1719L50.1725 25.1387C49.5547 24.673 48.8037 24.407 48.0145 24.407C46.2597 24.407 44.8043 25.6416 44.541 27.2987Z" fill="#CCD4D9"/>
<path fill-rule="evenodd" clip-rule="evenodd" d="M29.1154 24.4062C27.192 24.4062 25.6094 25.9185 25.5875 27.7786L25.5869 68.2456H32.6439V27.8176C32.6439 25.9369 31.0614 24.4062 29.1154 24.4062Z" fill="#CCD4D9"/>
</g>
<defs>
<clipPath id="clip0_878_27267">
<rect width="68" height="68" fill="white" transform="translate(0 0.236328)"/>
</clipPath>
</defs>
</svg>
