<svg width="68" height="69" viewBox="0 0 68 69" fill="none" xmlns="http://www.w3.org/2000/svg">
<g clip-path="url(#clip0_878_27283)">
<path d="M44.1964 0.142766L8.71133 3.45799C8.24249 3.57133 7.92017 3.93969 7.92017 4.39305V63.8404C7.92017 64.2937 8.24249 64.6621 8.71133 64.7754L44.1964 68.0906C44.841 68.2323 45.4564 67.7789 45.4564 67.1556V1.07783C45.4564 0.454453 44.841 0.00108956 44.1964 0.142766ZM36.6364 37.0069C35.4057 37.0069 34.4094 35.7035 34.4094 34.1167C34.4094 32.5299 35.4057 31.2265 36.6364 31.2265C37.8671 31.2265 38.8634 32.5299 38.8634 34.1167C38.8634 35.7035 37.8671 37.0069 36.6364 37.0069Z" fill="#CCD4D9"/>
<path d="M58.3781 3.91113H48.4739V6.4613H57.499V62.2534H48.3567V64.8035H58.3781C59.3157 64.8035 60.0776 64.0101 60.0776 63.0467V5.66792C60.0776 4.70452 59.3157 3.91113 58.3781 3.91113Z" fill="#CCD4D9"/>
</g>
<defs>
<clipPath id="clip0_878_27283">
<rect width="68" height="68" fill="white" transform="translate(0 0.116699)"/>
</clipPath>
</defs>
</svg>
