<svg width="218" height="33" viewBox="0 0 218 33" fill="none" xmlns="http://www.w3.org/2000/svg">
<path d="M44.8991 31.6859H44.5378V8.65964H44.9339C45.8782 8.65964 46.8108 8.64802 47.7318 8.62478C49.633 8.58359 50.6501 8.56141 50.8244 8.56141C52.826 8.52402 54.8193 8.82945 56.718 9.46446C58.2454 9.96777 59.632 10.8256 60.7643 11.9677C61.7528 12.9971 62.5205 14.2177 63.0203 15.5545C63.5224 16.9418 63.7724 18.4076 63.7586 19.8828C63.7586 23.3282 62.6073 26.1693 60.3048 28.4064C58.0023 30.6434 54.7545 31.763 50.5614 31.7651C49.6382 31.7651 48.7384 31.7535 47.8617 31.7302C47.0062 31.7081 46.0207 31.6859 44.8991 31.6859ZM50.7578 11.1818C50.3649 11.1818 49.766 11.1977 48.9644 11.2294C48.1627 11.2611 47.6209 11.2801 47.3357 11.2801V29.0654C47.9061 29.0654 48.4606 29.0654 48.9992 29.0654C49.5379 29.0654 49.9498 29.0876 50.2001 29.1003H50.6596C53.8409 29.1003 56.3314 28.2553 58.1312 26.5654C59.9309 24.8755 60.8202 22.6374 60.7991 19.8511C60.7991 17.2613 59.932 15.1658 58.1977 13.5646C56.4634 11.9634 53.9835 11.1734 50.7578 11.1945V11.1818Z" fill="#1C1B19"/>
<path d="M67.5451 23.0735C67.5128 21.8912 67.7339 20.7157 68.1935 19.6259C68.6531 18.5361 69.3407 17.5574 70.2099 16.7553C71.9864 15.0442 74.2572 14.1887 77.0224 14.1887C79.7432 14.1887 81.9929 15.0115 83.7715 16.6571C85.5502 18.3026 86.45 20.4414 86.4712 23.0735C86.4712 25.6886 85.5713 27.8285 83.7715 29.4931C82.0161 31.1598 79.7664 31.9931 77.0224 31.9931C74.2784 31.9931 72.0075 31.1703 70.2099 29.5248C68.4333 27.8792 67.5451 25.7288 67.5451 23.0735ZM70.5077 23.0735C70.4903 23.9117 70.6481 24.7444 70.9712 25.5181C71.2942 26.2918 71.7752 26.9896 72.3835 27.5666C72.9945 28.1657 73.7206 28.6349 74.5178 28.9459C75.3151 29.2568 76.1671 29.4031 77.0224 29.3758C78.9996 29.3758 80.5691 28.7833 81.7309 27.5983C82.3194 27.0079 82.7808 26.3033 83.0865 25.5278C83.3922 24.7523 83.5359 23.9225 83.5085 23.0893C83.5388 22.2522 83.3867 21.4185 83.0628 20.6459C82.7389 19.8734 82.2509 19.1805 81.6327 18.6153C81.0211 18.0272 80.2983 17.5671 79.5067 17.2619C78.715 16.9567 77.8704 16.8124 77.0224 16.8377C75.2905 16.7874 73.6094 17.4267 72.3487 18.6153C71.7449 19.1866 71.2688 19.8792 70.9515 20.6475C70.6343 21.4159 70.483 22.2426 70.5077 23.0735Z" fill="#1C1B19"/>
<path d="M94.1709 31.6856H91.373V14.4199H94.2058L101.018 22.6805L107.536 14.4199H110.201V31.6856H107.416V18.6659L101.018 26.5652H100.622L94.1709 18.7641V31.6856Z" fill="#1C1B19"/>
<path d="M122.543 31.686H122.181V8.65972H122.574C123.519 8.65972 124.451 8.6481 125.372 8.62486C127.273 8.58367 128.29 8.56149 128.468 8.56149C130.465 8.52518 132.454 8.83059 134.349 9.46454C135.877 9.9686 137.264 10.8263 138.398 11.9677C139.385 12.9982 140.151 14.2186 140.651 15.5546C141.156 16.9413 141.407 18.4074 141.393 19.8829C141.393 23.3282 140.24 26.1694 137.936 28.4065C135.631 30.6435 132.384 31.7631 128.195 31.7652C127.272 31.7652 126.372 31.7536 125.496 31.7303C124.619 31.7071 123.635 31.6923 122.543 31.686ZM128.401 11.1819C128.005 11.1819 127.406 11.1978 126.608 11.2295C125.809 11.2611 125.261 11.2802 124.979 11.2802V29.0655C125.55 29.0655 126.101 29.0655 126.64 29.0655C127.178 29.0655 127.59 29.0877 127.841 29.1004H128.303C131.484 29.1004 133.975 28.2554 135.775 26.5655C137.574 24.8756 138.463 22.6375 138.44 19.8512C138.44 17.2614 137.572 15.1659 135.838 13.5647C134.104 11.9635 131.625 11.1735 128.401 11.1946V11.1819Z" fill="#1C1B19"/>
<path d="M158.088 31.6856H146.634V14.4199H157.825V17.053H149.431V21.6602H157.001V24.2933H149.431V29.0652H158.088V31.6856Z" fill="#1C1B19"/>
<path d="M176.586 27.9468L177.673 30.0539C176.936 30.7148 176.057 31.1982 175.104 31.4671C173.987 31.8213 172.821 31.9988 171.65 31.9931C168.773 31.9931 166.457 31.1819 164.704 29.5596C162.951 27.9373 162.073 25.7753 162.071 23.0735C162.071 20.5386 162.904 18.4325 164.571 16.7553C166.24 15.0442 168.555 14.1887 171.517 14.1887C173.91 14.1887 175.841 14.7591 177.309 15.8998L176.026 18.0069C174.656 17.215 173.099 16.8057 171.517 16.8218C169.588 16.8218 168.02 17.3922 166.811 18.5329C165.603 19.6736 165.01 21.1871 165.034 23.0735C165.034 24.962 165.659 26.4871 166.91 27.649C168.16 28.8108 169.828 29.3811 171.913 29.36C173.582 29.4068 175.222 28.911 176.586 27.9468Z" fill="#1C1B19"/>
<path d="M180.008 23.0735C179.977 21.8913 180.198 20.716 180.658 19.6264C181.117 18.5367 181.805 17.5579 182.673 16.7553C184.45 15.0442 186.722 14.1887 189.489 14.1887C192.207 14.1887 194.456 15.0115 196.235 16.6571C198.013 18.3026 198.913 20.4414 198.934 23.0735C198.934 25.6886 198.035 27.8285 196.235 29.4931C194.479 31.1661 192.229 32.0026 189.482 32.0026C186.736 32.0026 184.464 31.1798 182.667 29.5343C180.897 27.8824 180.01 25.7288 180.008 23.0735ZM182.971 23.0735C182.954 23.9117 183.111 24.7444 183.434 25.5181C183.757 26.2918 184.238 26.9896 184.847 27.5666C185.459 28.1625 186.185 28.6285 186.981 28.9367C187.778 29.2449 188.629 29.3889 189.482 29.36C191.458 29.36 193.026 28.7675 194.188 27.5824C194.776 26.9921 195.238 26.2875 195.543 25.512C195.849 24.7365 195.993 23.9066 195.965 23.0735C195.996 22.2363 195.845 21.4024 195.521 20.6297C195.197 19.8571 194.708 19.1643 194.09 18.5994C193.478 18.0118 192.756 17.5519 191.965 17.2467C191.174 16.9415 190.33 16.797 189.482 16.8218C188.625 16.7962 187.771 16.9401 186.969 17.2451C186.167 17.5501 185.433 18.0103 184.809 18.5994C184.203 19.1725 183.726 19.8677 183.409 20.639C183.092 21.4103 182.943 22.2401 182.971 23.0735Z" fill="#1C1B19"/>
<path d="M206.634 25.4439V31.686H203.84V14.4203C204.606 14.4203 205.418 14.4087 206.273 14.3855C207.129 14.3622 208.028 14.3517 208.973 14.3538C213.724 14.3538 216.099 16.1747 216.099 19.8165C216.146 20.9875 215.785 22.1386 215.079 23.0738C214.405 23.9266 213.466 24.53 212.411 24.788L218 31.686H214.435L209.534 25.4439H206.634ZM209.103 16.9869C208.51 16.9869 207.689 17.0091 206.634 17.0534V22.814H209.302C210.273 22.8464 211.227 22.558 212.018 21.9933C212.364 21.7547 212.646 21.4344 212.838 21.0607C213.03 20.687 213.127 20.2716 213.12 19.8513C213.12 17.9417 211.781 16.9869 209.103 16.9869Z" fill="#1C1B19"/>
<path d="M11.9583 31.0336H9.94312V13.7773H21.0237V15.7926H11.9583V31.0336Z" fill="#1C1B19"/>
<path d="M20.6751 31.052H18.6567C18.6593 28.1902 19.797 25.4463 21.8203 23.4224C23.8436 21.3985 26.5872 20.2599 29.449 20.2566V22.2718C27.1217 22.2743 24.8905 23.2004 23.2455 24.8467C21.6004 26.4929 20.676 28.7247 20.6751 31.052Z" fill="#75A3BC"/>
<path d="M7.32583 23.8027C5.01094 23.8083 2.72053 23.329 0.602051 22.3959L1.41321 20.5517C4.03058 21.6973 6.92464 22.0568 9.74273 21.5864C12.5608 21.1161 15.1813 19.8362 17.2848 17.9028C19.9791 15.4299 21.6527 12.0397 21.9775 8.39697L23.9832 8.57441C23.6134 12.7369 21.6983 16.6099 18.6153 19.4308C15.5322 22.2517 11.5047 23.816 7.32583 23.8154V23.8027Z" fill="#F25220"/>
<path d="M25.4566 32.0409H7.51706e-06V17.0471C-0.00140846 16.0828 0.197233 15.1288 0.583376 14.2453C0.969518 13.3617 1.53476 12.5679 2.24338 11.914L15.2347 0L30.4693 13.9704V26.9331C30.4795 28.2745 29.9576 29.5652 29.0181 30.5225C28.0785 31.4799 26.7979 32.0259 25.4566 32.0409ZM2.0089 30.0257H25.4566C25.8563 30.0195 26.2509 29.9346 26.6178 29.7758C26.9847 29.6169 27.3167 29.3874 27.5948 29.1001C27.8729 28.8129 28.0917 28.4737 28.2386 28.1018C28.3855 27.73 28.4576 27.3329 28.4509 26.9331V14.8576L15.2347 2.73451L3.60588 13.4C3.10414 13.8655 2.70432 14.4299 2.43164 15.0576C2.15895 15.6853 2.01933 16.3627 2.02158 17.0471L2.0089 30.0257Z" fill="#1C1B19"/>
</svg>
