<svg viewBox="0 0 48 48" xmlns="http://www.w3.org/2000/svg">
<path d="M48 42V6C48 4.4087 47.3679 2.88258 46.2426 1.75736C45.1174 0.632141 43.5913 0 42 0H6C4.4087 0 2.88258 0.632141 1.75736 1.75736C0.632141 2.88258 0 4.4087 0 6V42C0 43.5913 0.632141 45.1174 1.75736 46.2426C2.88258 47.3679 4.4087 48 6 48H42C43.5913 48 45.1174 47.3679 46.2426 46.2426C47.3679 45.1174 48 43.5913 48 42Z"/>
<path d="M7 29.2V18H11.848C12.8507 18 13.7147 18.1653 14.44 18.496C15.1653 18.816 15.7253 19.28 16.12 19.888C16.5147 20.496 16.712 21.2213 16.712 22.064C16.712 22.896 16.5147 23.616 16.12 24.224C15.7253 24.832 15.1653 25.3013 14.44 25.632C13.7147 25.952 12.8507 26.112 11.848 26.112H8.44L9.592 24.944V29.2H7ZM9.592 25.232L8.44 24H11.704C12.504 24 13.1013 23.8293 13.496 23.488C13.8907 23.1467 14.088 22.672 14.088 22.064C14.088 21.4453 13.8907 20.9653 13.496 20.624C13.1013 20.2827 12.504 20.112 11.704 20.112H8.44L9.592 18.88V25.232Z" fill="white"/>
<path d="M18.5625 29.2V18H23.6505C24.8665 18 25.9385 18.2347 26.8665 18.704C27.7945 19.1627 28.5198 19.808 29.0425 20.64C29.5652 21.472 29.8265 22.4587 29.8265 23.6C29.8265 24.7307 29.5652 25.7173 29.0425 26.56C28.5198 27.392 27.7945 28.0427 26.8665 28.512C25.9385 28.9707 24.8665 29.2 23.6505 29.2H18.5625ZM21.1545 27.072H23.5225C24.2692 27.072 24.9145 26.9333 25.4585 26.656C26.0132 26.368 26.4398 25.9627 26.7385 25.44C27.0478 24.9173 27.2025 24.304 27.2025 23.6C27.2025 22.8853 27.0478 22.272 26.7385 21.76C26.4398 21.2373 26.0132 20.8373 25.4585 20.56C24.9145 20.272 24.2692 20.128 23.5225 20.128H21.1545V27.072Z" fill="white"/>
<path d="M34.1813 23.04H39.5573V25.12H34.1813V23.04ZM34.3732 29.2H31.7812V18H40.2453V20.08H34.3732V29.2Z" fill="white"/>
</svg>
