<svg width="19" height="18" viewBox="0 0 19 18" fill="none" xmlns="http://www.w3.org/2000/svg">
<path d="M10.9491 0.735107H7.61914C4.36414 0.735107 1.61914 3.33011 1.61914 6.39761V9.01511C1.61914 11.5576 2.38414 13.2076 3.95914 14.0551V15.7801C3.95914 16.3651 4.31164 16.8901 4.84414 17.1151C5.03164 17.1976 5.21914 17.2351 5.41414 17.2351C5.78164 17.2351 6.14914 17.0926 6.42664 16.8226L8.64664 14.6776H10.9491C14.0766 14.6776 16.6191 12.1351 16.6191 9.01511V6.39761C16.6191 3.27011 14.0766 0.735107 10.9491 0.735107ZM12.7341 11.0176C12.6216 11.1676 12.4866 11.3326 12.3516 11.4976C11.9616 11.9476 11.3241 12.1126 10.7691 11.8801C9.50164 11.3626 7.98664 10.3126 7.02664 9.42761C6.24664 8.70011 5.31664 7.00511 4.76164 5.91011C4.46914 5.32511 4.63414 4.62011 5.15914 4.21511L5.59414 3.87761C5.90914 3.63761 6.35914 3.70511 6.58414 4.02761L7.43914 5.23511C7.64164 5.52761 7.58914 5.92511 7.31164 6.15011L7.07914 6.34511C6.87664 6.51761 6.78664 6.78761 6.84664 7.04261C6.95914 7.46261 7.25914 8.07761 7.79914 8.65511C8.45164 9.35261 9.02164 9.58511 9.37414 9.66011C9.60664 9.70511 9.83914 9.61511 9.99664 9.44261L10.2291 9.18011C10.4616 8.88761 10.8816 8.82761 11.1816 9.04511L12.5841 10.0576C12.8991 10.2826 12.9591 10.7101 12.7341 11.0176ZM9.49414 6.36011C9.49414 6.15011 9.65914 5.98511 9.86914 5.98511C10.7691 5.98511 11.3691 6.58511 11.3691 7.48511C11.3691 7.69511 11.2041 7.86011 10.9941 7.86011C10.7841 7.86011 10.6191 7.69511 10.6191 7.48511C10.6191 7.00511 10.3566 6.73511 9.86914 6.73511C9.65914 6.73511 9.49414 6.57011 9.49414 6.36011ZM12.4941 7.86011C12.2841 7.86011 12.1191 7.69511 12.1191 7.48511C12.1191 6.35261 11.0016 5.23511 9.86914 5.23511C9.65914 5.23511 9.49414 5.07011 9.49414 4.86011C9.49414 4.65011 9.65914 4.48511 9.86914 4.48511C11.4141 4.48511 12.8691 5.94011 12.8691 7.48511C12.8691 7.69511 12.7041 7.86011 12.4941 7.86011ZM13.9941 7.86011C13.7841 7.86011 13.6191 7.69511 13.6191 7.48511C13.6191 5.70761 12.0816 3.73511 9.86914 3.73511C9.65914 3.73511 9.49414 3.57011 9.49414 3.36011C9.49414 3.15011 9.65914 2.98511 9.86914 2.98511C12.5241 2.98511 14.3691 5.35511 14.3691 7.48511C14.3691 7.69511 14.2041 7.86011 13.9941 7.86011Z" fill="#6DA1BD"/>
</svg>
