<svg width="37" height="37" viewBox="0 0 37 37" fill="none" xmlns="http://www.w3.org/2000/svg">
<path fill-rule="evenodd" clip-rule="evenodd" d="M18.1094 33.2314C26.3936 33.2314 33.1094 26.5157 33.1094 18.2314C33.1094 9.94717 26.3936 3.23145 18.1094 3.23145C9.8251 3.23145 3.10938 9.94717 3.10938 18.2314C3.10938 26.5157 9.8251 33.2314 18.1094 33.2314ZM18.1094 36.2314C28.0505 36.2314 36.1094 28.1726 36.1094 18.2314C36.1094 8.29032 28.0505 0.231445 18.1094 0.231445C8.16825 0.231445 0.109375 8.29032 0.109375 18.2314C0.109375 28.1726 8.16825 36.2314 18.1094 36.2314Z" fill="#D2D4D8"/>
<path fill-rule="evenodd" clip-rule="evenodd" d="M28.198 13.2645L15.6863 26.4347L8.60059 18.6404L10.8204 16.6224L15.7347 22.0281L26.023 11.1982L28.198 13.2645Z" fill="#D2D4D8"/>
</svg>
