<svg width="80" height="80" viewBox="0 0 80 80" fill="none" xmlns="http://www.w3.org/2000/svg">
<path d="M39.9708 24.572C26.1529 24.572 11.2808 22.1437 11.2808 16.812C11.2808 11.4798 26.1526 9.05151 39.9708 9.05151C53.789 9.05151 68.6608 11.4798 68.6608 16.812C68.6608 22.1437 53.789 24.572 39.9708 24.572ZM39.9708 11.4804C22.979 11.4804 13.7097 15.0022 13.7097 16.812C13.7097 18.6213 22.9789 22.1431 39.9708 22.1431C56.9627 22.1431 66.2319 18.6213 66.2319 16.812C66.2319 15.0022 56.9627 11.4804 39.9708 11.4804Z" fill="#F25220"/>
<path d="M39.9708 71.7385C26.1529 71.7385 11.2808 69.3101 11.2808 63.9785V16.8105C11.2808 16.1398 11.8245 15.5961 12.4952 15.5961C13.1659 15.5961 13.7097 16.1398 13.7097 16.8105V63.9785C13.7097 65.7878 22.9789 69.3095 39.9708 69.3095C56.9627 69.3095 66.2319 65.7878 66.2319 63.9785V16.8105C66.2319 16.1398 66.7757 15.5961 67.4464 15.5961C68.1171 15.5961 68.6608 16.1398 68.6608 16.8105V63.9785C68.6608 69.3101 53.789 71.7385 39.9708 71.7385Z" fill="#F25220"/>
<path d="M69.567 31.584H67.4452C66.7745 31.584 66.2307 31.0402 66.2307 30.3695C66.2307 29.6988 66.7745 29.1551 67.4452 29.1551H69.567C71.2232 29.1551 72.5711 27.5794 72.5711 25.6427C72.5711 23.7059 71.2232 22.1303 69.567 22.1303H67.4452C66.7745 22.1303 66.2307 21.5866 66.2307 20.9159C66.2307 20.2452 66.7745 19.7014 67.4452 19.7014H69.567C72.5627 19.7014 75 22.3664 75 25.6427C75 28.919 72.5627 31.584 69.567 31.584Z" fill="#F25220"/>
<path d="M12.4948 31.584H10.373C7.37721 31.584 4.93994 28.919 4.93994 25.6427C4.93994 22.3664 7.37721 19.7014 10.373 19.7014H12.4948C13.1655 19.7014 13.7092 20.2452 13.7092 20.9159C13.7092 21.5866 13.1655 22.1303 12.4948 22.1303H10.373C8.71675 22.1303 7.36886 23.7059 7.36886 25.6427C7.36886 27.5794 8.71674 29.1551 10.373 29.1551H12.4948C13.1655 29.1551 13.7092 29.6988 13.7092 30.3695C13.7092 31.0402 13.1655 31.584 12.4948 31.584Z" fill="#F25220"/>
<path d="M42.6953 62.6437H37.2445C19.4315 62.6437 4.93994 46.0451 4.93994 25.6438C4.93994 24.9731 5.48371 24.4293 6.1544 24.4293C6.82508 24.4293 7.36886 24.9731 7.36886 25.6438C7.36886 44.7062 20.7712 60.2148 37.2445 60.2148H42.6953C59.1694 60.2148 72.5709 44.7062 72.5709 25.6438C72.5709 24.9731 73.1147 24.4293 73.7854 24.4293C74.4561 24.4293 74.9999 24.9731 74.9999 25.6438C74.9999 46.0451 60.5082 62.6437 42.6953 62.6437Z" fill="#F25220"/>
<path d="M56.3551 46.3699C53.5034 46.3699 51.183 44.3111 51.183 41.7808V38.1315C51.183 36.8862 49.9004 35.8728 48.3242 35.8728C46.7474 35.8728 45.4647 36.8862 45.4647 38.1315V41.6824C45.4647 44.2673 43.0927 46.3701 40.177 46.3701C37.2612 46.3701 34.8892 44.2673 34.8892 41.6824V34.3204C34.8892 32.8148 33.3581 31.5897 31.4766 31.5897C29.5951 31.5897 28.0644 32.8148 28.0644 34.3204V42.0768C28.0644 44.4441 25.9 46.3701 23.2393 46.3701C20.5785 46.3701 18.4141 44.444 18.4141 42.0768V21.8926C18.4141 21.2219 18.9578 20.6781 19.6285 20.6781C20.2992 20.6781 20.843 21.2219 20.843 21.8926V42.0768C20.843 43.1051 21.9181 43.9412 23.2393 43.9412C24.5604 43.9412 25.6355 43.1051 25.6355 42.0768V34.3204C25.6355 31.4752 28.256 29.1608 31.4766 29.1608C34.6978 29.1608 37.3182 31.4752 37.3182 34.3204V41.6824C37.3182 42.9277 38.6008 43.9412 40.177 43.9412C41.7532 43.9412 43.0358 42.9277 43.0358 41.6824V38.1315C43.0358 35.5467 45.4084 33.4439 48.3242 33.4439C51.2399 33.4439 53.6119 35.5467 53.6119 38.1315V41.7808C53.6119 42.9722 54.8424 43.941 56.3551 43.941C57.8678 43.941 59.0982 42.9721 59.0982 41.7808V21.8926C59.0982 21.2219 59.642 20.6781 60.3127 20.6781C60.9834 20.6781 61.5271 21.2219 61.5271 21.8926V41.7808C61.5271 44.3111 59.2068 46.3699 56.3551 46.3699Z" fill="#F25220"/>
</svg>
