<svg width="20" height="20" viewBox="0 0 20 20" fill="none" xmlns="http://www.w3.org/2000/svg">
<g clip-path="url(#clip0_878_31076)">
<path d="M1 2H1.00881C1.00881 3.03164 1.4142 4.01919 2.14567 4.74222C2.87714 5.47407 3.86418 5.87967 4.88647 5.87967V7.42272H6.42872C8.0591 7.42272 9.62779 8.07521 10.7823 9.22147C11.9368 10.3766 12.5801 11.9372 12.5801 13.5685V15.1115H14.1223C14.1223 15.6229 14.2193 16.1255 14.422 16.6017C14.6159 17.069 14.9067 17.501 15.2592 17.8626C15.9907 18.5944 16.9777 19 18 19V3.76349C18 2.79357 17.2068 2 16.2374 2H1Z" fill="#6DA1BD"/>
<path d="M20 0H0V1H20V0Z" fill="#6DA1BD"/>
<path d="M20 0H19V20H20V0Z" fill="#6DA1BD"/>
</g>
<defs>
<clipPath id="clip0_878_31076">
<rect width="20" height="20" fill="white"/>
</clipPath>
</defs>
</svg>
