<svg width="19" height="18" viewBox="0 0 19 18" fill="none" xmlns="http://www.w3.org/2000/svg">
<path fill-rule="evenodd" clip-rule="evenodd" d="M9.62451 3.38867C7.29008 3.38867 5.35742 5.38068 5.35742 7.88876C5.35742 9.64109 6.44178 11.3275 7.61202 12.6232C8.18827 13.2612 8.76605 13.7832 9.20017 14.1458C9.36583 14.2841 9.51002 14.3988 9.6245 14.4874C9.73899 14.3988 9.88318 14.2841 10.0488 14.1458C10.483 13.7832 11.0607 13.2612 11.637 12.6232C12.8072 11.3275 13.8916 9.64109 13.8916 7.88876C13.8916 5.38068 11.9589 3.38867 9.62451 3.38867ZM9.62451 15.1111C9.33798 15.5209 9.33785 15.5208 9.33771 15.5207L9.33732 15.5204L9.33623 15.5197L9.33275 15.5172L9.32072 15.5087L9.2771 15.4773C9.23963 15.45 9.18574 15.4103 9.11776 15.3588C8.98184 15.2559 8.78936 15.1056 8.55913 14.9133C8.09942 14.5293 7.48543 13.9749 6.86991 13.2934C5.65661 11.9501 4.35742 10.0254 4.35742 7.88876C4.35742 4.8739 6.69336 2.38867 9.62451 2.38867C12.5557 2.38867 14.8916 4.8739 14.8916 7.88876C14.8916 10.0254 13.5924 11.9501 12.3791 13.2934C11.7636 13.9749 11.1496 14.5293 10.6899 14.9133C10.4597 15.1056 10.2672 15.2559 10.1313 15.3588C10.0633 15.4103 10.0094 15.45 9.97191 15.4773L9.92829 15.5087L9.91626 15.5172L9.91278 15.5197L9.91169 15.5204L9.91131 15.5207C9.91116 15.5208 9.91103 15.5209 9.62451 15.1111ZM9.62451 15.1111L9.91103 15.5209C9.73896 15.6412 9.51005 15.6412 9.33798 15.5209L9.62451 15.1111Z" fill="#F25220"/>
<path fill-rule="evenodd" clip-rule="evenodd" d="M9.62418 6.72217C9.04495 6.72217 8.53516 7.22176 8.53516 7.88887C8.53516 8.55597 9.04495 9.05556 9.62418 9.05556C10.2034 9.05556 10.7132 8.55597 10.7132 7.88887C10.7132 7.22176 10.2034 6.72217 9.62418 6.72217ZM7.53516 7.88887C7.53516 6.71499 8.44823 5.72217 9.62418 5.72217C10.8001 5.72217 11.7132 6.71499 11.7132 7.88887C11.7132 9.06275 10.8001 10.0556 9.62418 10.0556C8.44823 10.0556 7.53516 9.06275 7.53516 7.88887Z" fill="#F25220"/>
</svg>
