<svg width="73" height="81" fill="none" xmlns="http://www.w3.org/2000/svg"><path d="M49.558 53.093c0-15.412-12.397-27.906-27.69-27.906-.46 0-.918.011-1.374.034l-.249-2.372-3.154-3.573h-.128a9.4 9.4 0 0 1-3.88-.832 9.467 9.467 0 0 1-3.2-2.362 9.556 9.556 0 0 1-1.959-3.475 9.607 9.607 0 0 1-.373-3.98H0V0h67a6 6 0 0 1 6 6v75h-7.692v-7.097a9.408 9.408 0 0 1-4.83-.335 9.473 9.473 0 0 1-4.036-2.695 9.579 9.579 0 0 1-2.188-4.353 9.623 9.623 0 0 1 .23-4.874l-1.405-1.598-4.12-1.162c.399-1.905.6-3.846.599-5.793Z" fill="#75A3BC"/></svg>