<svg width="27" height="26" viewBox="0 0 27 26" fill="none" xmlns="http://www.w3.org/2000/svg">
<g clip-path="url(#clip0_780_27656)">
<path d="M22.0578 5.54557L21.301 23.7088C21.2768 24.2854 20.7788 24.7621 20.2001 24.7621H6.99372C6.41508 24.7621 5.91709 24.2842 5.89284 23.7088L5.13598 5.54557C5.12188 5.20386 4.83342 4.93844 4.49171 4.95283C4.15029 4.96694 3.88487 5.25539 3.89897 5.5971L4.65584 23.7603C4.70737 24.9993 5.75148 26 6.9937 26H20.2001C21.4417 26 22.4861 25.0007 22.5379 23.7603L23.2948 5.5971C23.3089 5.25539 23.0435 4.96693 22.7021 4.95283C22.3604 4.93844 22.0719 5.20385 22.0578 5.54557Z" fill="black"/>
<path d="M3.27909 3.50786H23.914C24.256 3.50786 24.533 3.23064 24.533 2.88893C24.533 2.54694 24.256 2.26971 23.914 2.26971H3.27909C2.93709 2.26971 2.66016 2.54694 2.66016 2.88893C2.66016 3.23064 2.93709 3.50786 3.27909 3.50786Z" fill="black"/>
<path d="M10.0443 2.91242L10.4859 1.80815C10.6034 1.51423 11.0113 1.23787 11.3265 1.23787H15.8663C16.1836 1.23787 16.5886 1.51222 16.7069 1.80815L17.1485 2.91242L18.2983 2.45239L17.8564 1.34842C17.5501 0.582127 16.69 0 15.8664 0H11.3265C10.5052 0 9.64189 0.584102 9.33642 1.34842L8.89453 2.45239L10.0443 2.91242Z" fill="black"/>
<path fill-rule="evenodd" clip-rule="evenodd" d="M16.9665 10.0352C15.053 8.12161 11.9504 8.12161 10.0369 10.0352L9.18835 9.18665C11.5705 6.80445 15.4329 6.80445 17.8151 9.18665C20.1973 11.5688 20.1973 15.4312 17.8151 17.8134C15.4329 20.1956 11.5705 20.1955 9.18835 17.8134L10.0369 16.9648C11.9504 18.8784 15.053 18.8784 16.9665 16.9648C18.8801 15.0513 18.8801 11.9487 16.9665 10.0352Z" fill="black"/>
<path fill-rule="evenodd" clip-rule="evenodd" d="M8.83199 10.3048L8.96998 6.97928L9.96912 7.02074L9.87259 9.34716L12.199 9.44369L12.1576 10.4428L8.83199 10.3048Z" fill="black"/>
</g>
<defs>
<clipPath id="clip0_780_27656">
<rect width="26" height="26" fill="white" transform="translate(0.5625)"/>
</clipPath>
</defs>
</svg>
