<svg width="20" height="20" viewBox="0 0 20 20" fill="none" xmlns="http://www.w3.org/2000/svg">
<g clip-path="url(#clip0_878_31101)">
<path d="M1 8L0 1H20L19 8H1Z" fill="#6DA1BD"/>
<path d="M1 9V10.457C1 10.9133 1.43029 11.2873 2.00307 11.2873H7.48218C7.94616 11.2873 8.38739 11.4498 8.69076 11.7319C8.99729 12.0162 9.13181 12.3923 9.06585 12.7615C9.06007 12.7798 8.74777 14.4742 8.62759 15.036C8.51578 15.5635 8.45878 16.0769 8.45878 16.5606C8.45878 18.5877 9.2721 20 9.99956 20C10.727 20 11.5376 18.5877 11.5376 16.5606C11.5376 16.086 11.4834 15.5885 11.3801 15.0794C11.2598 14.5085 10.9447 12.7842 10.9419 12.768C10.8701 12.3988 11.0051 12.0207 11.3114 11.7342C11.6151 11.4499 12.0591 11.2873 12.5231 11.2873H17.9706C18.5434 11.2873 19 10.9133 19 10.457V9.00004L1 9Z" fill="#6DA1BD"/>
<path d="M0 0H1V1H0V0Z" fill="#6DA1BD"/>
<path d="M4 0H5V1H4V0Z" fill="#6DA1BD"/>
<path d="M8 0H9V1H8V0Z" fill="#6DA1BD"/>
<path d="M12 0H13V1H12V0Z" fill="#6DA1BD"/>
<path d="M16 0H17V1H16V0Z" fill="#6DA1BD"/>
<path d="M19 0H20V1H19V0Z" fill="#6DA1BD"/>
</g>
<defs>
<clipPath id="clip0_878_31101">
<rect width="20" height="20" fill="white"/>
</clipPath>
</defs>
</svg>
