<svg viewBox="0 0 24 24" xmlns="http://www.w3.org/2000/svg">
<path fill-rule="evenodd" clip-rule="evenodd" d="M0.431641 0.583374H2.84904C3.62555 0.583374 4.3092 1.09507 4.52808 1.84009L5.52988 5.25004H19.8546C21.018 5.25004 21.8575 6.36408 21.5368 7.48237L19.6254 14.149C19.4102 14.8995 18.7239 15.4167 17.9432 15.4167H8.26316C7.48665 15.4167 6.803 14.905 6.58412 14.16L3.0889 2.26291C3.05764 2.15647 2.95997 2.08337 2.84904 2.08337H0.431641V0.583374ZM5.97056 6.75004L8.0233 13.7372C8.05457 13.8436 8.15223 13.9167 8.26316 13.9167H17.9432C18.0547 13.9167 18.1527 13.8428 18.1835 13.7356L20.0949 7.06894C20.1408 6.90919 20.0208 6.75004 19.8546 6.75004H5.97056Z"/>
<path fill-rule="evenodd" clip-rule="evenodd" d="M9.84814 21.1667C10.1243 21.1667 10.3481 20.9429 10.3481 20.6667C10.3481 20.3906 10.1243 20.1667 9.84814 20.1667C9.572 20.1667 9.34814 20.3906 9.34814 20.6667C9.34814 20.9429 9.572 21.1667 9.84814 21.1667ZM9.84814 22.6667C10.9527 22.6667 11.8481 21.7713 11.8481 20.6667C11.8481 19.5622 10.9527 18.6667 9.84814 18.6667C8.74358 18.6667 7.84814 19.5622 7.84814 20.6667C7.84814 21.7713 8.74358 22.6667 9.84814 22.6667Z"/>
<path fill-rule="evenodd" clip-rule="evenodd" d="M16.5151 21.1667C16.7913 21.1667 17.0151 20.9429 17.0151 20.6667C17.0151 20.3906 16.7913 20.1667 16.5151 20.1667C16.239 20.1667 16.0151 20.3906 16.0151 20.6667C16.0151 20.9429 16.239 21.1667 16.5151 21.1667ZM16.5151 22.6667C17.6197 22.6667 18.5151 21.7713 18.5151 20.6667C18.5151 19.5622 17.6197 18.6667 16.5151 18.6667C15.4106 18.6667 14.5151 19.5622 14.5151 20.6667C14.5151 21.7713 15.4106 22.6667 16.5151 22.6667Z"/>
<path fill-rule="evenodd" clip-rule="evenodd" d="M7.09847 13.9167V16.3334C7.09847 17.2999 7.88197 18.0834 8.84847 18.0834H19.2651V16.5834H8.84847C8.7104 16.5834 8.59847 16.4715 8.59847 16.3334V13.9167H7.09847Z"/>
</svg>
