<svg width="16" height="16" viewBox="0 0 16 16" fill="none" xmlns="http://www.w3.org/2000/svg">
<path fill-rule="evenodd" clip-rule="evenodd" d="M2.32115 6.61676C5.58949 9.35595 10.3921 9.34022 13.681 6.61498C13.8936 6.43878 14.2088 6.46832 14.385 6.68095C14.5612 6.89358 14.5316 7.20878 14.319 7.38497C10.6637 10.4139 5.32235 10.4368 1.67882 7.38318C1.46718 7.20581 1.4394 6.89045 1.61678 6.6788C1.79415 6.46716 2.10951 6.43938 2.32115 6.61676Z" fill="#6DA1BD"/>
<path fill-rule="evenodd" clip-rule="evenodd" d="M8.5 9V12H7.5V9H8.5Z" fill="#6DA1BD"/>
<path fill-rule="evenodd" clip-rule="evenodd" d="M11.9553 7.91921L12.9814 10.7383L12.0417 11.0803L11.0156 8.26123L11.9553 7.91921Z" fill="#6DA1BD"/>
<path fill-rule="evenodd" clip-rule="evenodd" d="M4.98657 8.26145L3.96051 11.0805L3.02081 10.7385L4.04688 7.91943L4.98657 8.26145Z" fill="#6DA1BD"/>
</svg>
