<svg viewBox="0 0 23 23" xmlns="http://www.w3.org/2000/svg">
<path fill-rule="evenodd" clip-rule="evenodd" d="M11.7498 9.77027C10.2975 9.77027 9.11414 10.9571 9.11414 12.4286C9.11414 13.9001 10.2975 15.0869 11.7498 15.0869C13.2021 15.0869 14.3855 13.9001 14.3855 12.4286C14.3855 10.9571 13.2021 9.77027 11.7498 9.77027ZM8.125 12.4286C8.125 10.4175 9.74454 8.78113 11.7498 8.78113C13.7551 8.78113 15.3747 10.4175 15.3747 12.4286C15.3747 14.4396 13.7551 16.076 11.7498 16.076C9.74454 16.076 8.125 14.4396 8.125 12.4286Z"/>
<path fill-rule="evenodd" clip-rule="evenodd" d="M7.75651 7.617H4.14286V17.7621H19.3571V7.617H15.7435L15.0841 5.47135H8.41581L7.75651 7.617ZM7.57139 4.32849H15.9286L16.5879 6.47414H20.5V18.9049H3V6.47414H6.91209L7.57139 4.32849Z"/>
<path d="M5.39062 8.42737H7.67634V9.57023H5.39062V8.42737Z"/>
<path d="M17.2148 8.42737H18.3577V9.57023H17.2148V8.42737Z"/>
</svg>
