<svg width="80" height="80" viewBox="0 0 80 80" fill="none" xmlns="http://www.w3.org/2000/svg">
<path d="M25.0599 26.47C18.0199 26.47 12.3199 32.17 12.3199 39.21C12.3199 42.67 13.7899 45.93 16.0999 48.23C18.3999 50.53 21.5999 51.94 25.1199 52.01C32.1599 52.01 37.8599 46.31 37.8599 39.27C37.7999 32.17 32.0999 26.47 25.0599 26.47ZM24.9999 49.7C19.2399 49.7 14.4999 44.96 14.4999 39.2C14.4999 33.44 19.2399 28.7 24.9999 28.7C27.9399 28.7 30.4999 29.85 32.4199 31.77C34.3399 33.69 35.4899 36.25 35.4899 39.19C35.5499 45.01 30.8199 49.75 24.9899 49.69L24.9999 49.7Z" fill="#EB5A1E"/>
<path d="M74.85 68.07H79.97V56.29H50.02V52.71H53.86V38.89H50.02C50.02 35.05 49.06 31.4 47.4 28.2V18.73H39.21C35.11 15.91 30.25 14.25 25 14.25C18.34 14.25 12.07 16.81 7.34003 21.55C2.59003 26.28 0.0300293 32.55 0.0300293 39.21V57.39C0.0300293 59.18 0.730029 60.91 2.01003 62.19C3.29003 63.47 5.02003 64.17 6.81003 64.17H43.17C44.96 64.17 46.69 63.47 47.97 62.19C48.23 61.93 48.42 61.74 48.55 61.49H74.79L74.85 68.08V68.07ZM77.73 58.53V65.7H77.09V58.53H77.73ZM51.62 50.47H49.96V41.13H51.62V50.47ZM45.09 21.03V24.49C44.19 23.21 43.17 22.06 42.02 21.03H45.09ZM43.23 61.93L6.81003 61.87C5.66003 61.87 4.51003 61.36 3.67003 60.53C2.84003 59.7 2.33003 58.55 2.33003 57.39V39.21C2.33003 33.19 4.70003 27.5 8.99003 23.21C13.28 18.92 18.97 16.55 24.99 16.55C37.53 16.55 47.71 26.73 47.65 39.21L47.71 57.45C47.71 59.88 45.66 61.93 43.23 61.93ZM49.76 59.24C49.82 59.05 49.82 58.79 49.89 58.6H74.85V59.24H49.76Z" fill="#EB5A1E"/>
</svg>
