<svg width="48" height="72" viewBox="0 0 48 72" fill="none" xmlns="http://www.w3.org/2000/svg">
<path d="M18.9534 5.24781H29.1863C29.1863 -0.536055 18.9534 -0.536055 18.9534 5.24781ZM1.15587 11.2543H46.9831C48.5405 10.3645 48.0957 6.8052 46.5382 6.8052H1.60124C-0.178385 6.8052 -0.623257 10.3644 1.15632 11.2543H1.15587ZM45.2026 12.8117H2.71286V69.9837C2.71286 70.6513 3.38049 71.3184 4.04761 71.3184H43.8678C44.7577 71.3184 45.2026 70.6508 45.2026 69.9837V12.8117ZM9.83108 17.9285C9.83108 15.259 14.2802 15.259 14.2802 17.9285V65.0905C14.2802 67.9826 9.83108 67.9826 9.83108 65.0905V17.9285ZM22.2891 17.9285C22.2891 15.259 26.516 15.259 26.516 17.9285V65.0905C26.516 67.9826 22.2891 67.9826 22.2891 65.0905V17.9285ZM34.5243 17.9285C34.5243 15.259 38.9735 15.259 38.9735 17.9285V65.0905C38.9735 67.9826 34.5243 67.9826 34.5243 65.0905V17.9285Z" fill="white"/>
</svg>
