<svg width="20" height="20" viewBox="0 0 20 20" fill="none" xmlns="http://www.w3.org/2000/svg">
<g clip-path="url(#clip0_878_31081)">
<path fill-rule="evenodd" clip-rule="evenodd" d="M19.8242 3.38311C19.8242 1.51898 18.2572 0.00249706 16.3299 0H3.66965C1.74268 0.00251719 0.175781 1.51898 0.175781 3.38311C0.175781 3.46901 0.179361 3.55491 0.186031 3.64049L0.184404 3.64065C0.197256 5.31505 1.53019 6.62339 3.23099 6.62339C4.91081 6.62339 6.27775 5.25008 6.27775 3.56231C6.27775 2.34307 5.29182 1.35113 4.08023 1.35113C2.86847 1.35113 1.88271 2.3429 1.88271 3.56231C1.88271 4.31292 2.48776 4.92365 3.23112 4.92365C3.97448 4.92365 4.57953 4.31292 4.57953 3.56231C4.57953 3.28039 4.35566 3.05086 4.08023 3.05086C3.80479 3.05086 3.58093 3.2804 3.58093 3.56231H2.88118C2.88118 2.90736 3.41904 2.3742 4.08023 2.3742C4.74142 2.3742 5.27928 2.9072 5.27928 3.56231C5.27928 4.68591 4.36053 5.60032 3.23129 5.60032C2.10204 5.60032 1.18329 4.68595 1.18329 3.56231C1.18329 1.99239 2.44773 0.713494 4.01434 0.677931L4.01385 0.667233H16.1597V0.686584C17.6453 0.808827 18.817 2.05058 18.817 3.56215C18.817 4.68574 17.8983 5.60015 16.769 5.60015C15.6398 5.60015 14.721 4.68578 14.721 3.56215C14.721 2.91493 15.2591 2.38821 15.9201 2.38821C16.5816 2.38821 17.1191 2.91477 17.1191 3.56215H16.4194C16.4194 3.28337 16.2004 3.06483 15.9201 3.06483C15.6404 3.06483 15.4208 3.28335 15.4208 3.56215C15.4208 4.31275 16.0258 4.92349 16.7692 4.92349C17.513 4.92349 18.1176 4.31275 18.1176 3.56215C18.1176 2.3429 17.1317 1.35096 15.9201 1.35096C14.7083 1.35096 13.7226 2.34274 13.7226 3.56215C13.7226 5.24992 15.0895 6.62322 16.7693 6.62322C18.4703 6.62322 19.8032 5.3146 19.8161 3.64048L19.8146 3.64033C19.8205 3.55505 19.8242 3.46917 19.8242 3.38311Z" fill="#6DA1BD"/>
<path fill-rule="evenodd" clip-rule="evenodd" d="M14.2598 6.32953C13.5022 5.64501 13.0225 4.65984 13.0225 3.56218C13.0225 2.67158 13.4297 1.87409 14.0678 1.34375H5.93194C6.57002 1.87393 6.97727 2.67158 6.97727 3.56218C6.97727 4.65513 6.50171 5.637 5.74927 6.32103C5.78213 6.3193 5.81386 6.31316 5.84672 6.31316C6.4067 6.31316 6.90358 6.57432 7.21791 6.97629C7.53321 6.5748 8.03008 6.31316 8.58731 6.31316C9.14683 6.31316 9.64333 6.57385 9.95783 6.97533C10.2735 6.57446 10.7697 6.31316 11.3264 6.31316C11.8804 6.31316 12.3722 6.56866 12.6872 6.96292C13.003 6.56536 13.4985 6.31316 14.0528 6.31316C14.1228 6.31301 14.1911 6.32134 14.2599 6.32952L14.2598 6.32953Z" fill="#6DA1BD"/>
<path fill-rule="evenodd" clip-rule="evenodd" d="M5.84639 7C5.58266 7 5.32852 7.10211 5.14014 7.27673L5.14014 20.4286H6.86681L6.86681 7.98678C6.86681 7.44259 6.40916 7 5.84639 7Z" fill="#6DA1BD"/>
<path fill-rule="evenodd" clip-rule="evenodd" d="M11.3266 6.98975C10.7721 6.98975 10.3158 7.42476 10.3071 7.96046C10.3071 7.96565 10.3076 7.971 10.3076 7.97619L10.3076 20H12.349V7.97619H12.3472C12.347 7.43231 11.8892 6.98975 11.3266 6.98975Z" fill="#6DA1BD"/>
<path fill-rule="evenodd" clip-rule="evenodd" d="M13.0483 7.82626V20H14.6768L14.6769 7.20159C14.4983 7.06692 14.2811 6.98999 14.0528 6.98999C13.5454 6.98999 13.1245 7.34703 13.0483 7.82626Z" fill="#6DA1BD"/>
<path fill-rule="evenodd" clip-rule="evenodd" d="M8.58706 6.98975C8.03083 6.98975 7.57315 7.42709 7.56681 7.96501L7.56665 20H9.60748V7.97629C9.60748 7.43241 9.14983 6.98975 8.58706 6.98975Z" fill="#6DA1BD"/>
</g>
<defs>
<clipPath id="clip0_878_31081">
<rect width="20" height="20" fill="white"/>
</clipPath>
</defs>
</svg>
