<svg width="22" height="19" viewBox="0 0 22 19" xmlns="http://www.w3.org/2000/svg">
<path fill-rule="evenodd" clip-rule="evenodd" d="M15.1204 3.07559C13.1165 2.44832 10.9836 3.56428 10.3563 5.56815C9.72903 7.57202 10.845 9.70498 12.8489 10.3322C14.8527 10.9595 16.9857 9.84356 17.613 7.83969C18.2402 5.83582 17.1243 3.70286 15.1204 3.07559ZM8.92479 5.12005C9.79954 2.32558 12.774 0.769336 15.5685 1.64408C18.363 2.51883 19.9192 5.49332 19.0445 8.28779C18.1697 11.0823 15.1952 12.6385 12.4008 11.7638C9.60628 10.889 8.05004 7.91451 8.92479 5.12005Z"/>
<path fill-rule="evenodd" clip-rule="evenodd" d="M16.6558 10.6544L20.1415 17.3169L18.8124 18.0122L15.3267 11.3498L16.6558 10.6544Z"/>
<path fill-rule="evenodd" clip-rule="evenodd" d="M5.46761 4.95001H0.134277V3.45001H5.46761V4.95001Z"/>
<path fill-rule="evenodd" clip-rule="evenodd" d="M7.60094 11.35H0.134277V9.85001H7.60094V11.35Z"/>
<path fill-rule="evenodd" clip-rule="evenodd" d="M10.8009 17.75H0.134277V16.25H10.8009V17.75Z"/>
</svg>
