<svg width="20" height="20" viewBox="0 0 20 20" fill="none" xmlns="http://www.w3.org/2000/svg">
<g clip-path="url(#clip0_878_31095)">
<path d="M10.1191 0.0239258V0.766798L11.3086 0.806738V4.85659C11.3086 5.17611 11.0443 5.43971 10.7056 5.43971C10.3669 5.43971 10.1026 5.18409 10.1026 4.85659V3.77823C10.1026 3.45871 9.83825 3.19511 9.49957 3.19511C9.16089 3.19511 8.92134 3.44274 8.90482 3.74628V6.6938C8.90482 6.6938 8.90482 6.70978 8.90482 6.72576V6.94143C8.90482 7.26094 8.64048 7.52454 8.3018 7.52454C7.96312 7.52454 7.69879 7.26893 7.69879 6.94143V4.82464C7.69879 4.82464 7.69879 4.82464 7.69879 4.81665C7.69053 4.50513 7.42619 4.24951 7.10403 4.24951C6.78187 4.24951 6.50101 4.50513 6.50101 4.83263V5.59148C6.50101 5.91099 6.23668 6.17459 5.898 6.17459C5.55932 6.17459 5.29498 5.91898 5.29498 5.59148V3.47469C5.29498 3.15517 5.02239 2.89157 4.69197 2.89157C4.36155 2.89157 4.08895 2.62797 4.08895 2.30846V0.0239258H2.40381V6.66185C4.23764 8.73071 6.94708 10.0487 9.97868 10.0487C13.0103 10.0487 15.728 8.73071 17.5536 6.66185V0.0239258H10.1191Z" fill="#6DA1BD"/>
<path d="M2.40381 7.83594L2.40381 19.9998H17.5536L17.5536 7.83594C15.6041 9.69711 12.9277 10.8474 9.97868 10.8474C7.02969 10.8474 4.35329 9.69711 2.40381 7.83594Z" fill="#6DA1BD"/>
<path d="M9.97868 10.0488C4.47719 10.0488 0 5.71932 0 0.399394V0H19.9574V0.399394C19.9574 5.71932 15.4802 10.0488 9.97868 10.0488ZM0.842571 0.798788C1.05734 5.48767 5.07194 9.24197 9.97868 9.24197C14.8854 9.24197 18.9 5.49566 19.1148 0.798788H0.842571Z" fill="#6DA1BD"/>
</g>
<defs>
<clipPath id="clip0_878_31095">
<rect width="20" height="20" fill="white"/>
</clipPath>
</defs>
</svg>
