<svg width="21" height="20" viewBox="0 0 21 20" fill="none" xmlns="http://www.w3.org/2000/svg">
<path d="M20.2734 10C20.2734 15.5228 15.7963 20 10.2734 20C4.75059 20 0.273438 15.5228 0.273438 10C0.273438 4.47715 4.75059 0 10.2734 0C15.7963 0 20.2734 4.47715 20.2734 10Z" fill="#838383"/>
<path fill-rule="evenodd" clip-rule="evenodd" d="M10.2734 15C13.0349 15 15.2734 12.7614 15.2734 10C15.2734 7.23858 13.0349 5 10.2734 5C7.51201 5 5.27344 7.23858 5.27344 10C5.27344 12.7614 7.51201 15 10.2734 15ZM10.2734 17C14.1394 17 17.2734 13.866 17.2734 10C17.2734 6.13401 14.1394 3 10.2734 3C6.40744 3 3.27344 6.13401 3.27344 10C3.27344 13.866 6.40744 17 10.2734 17Z" fill="white"/>
<path fill-rule="evenodd" clip-rule="evenodd" d="M9.15234 6.5658H11.1523V9.39897H12.7844V11.399H9.15234V6.5658Z" fill="white"/>
</svg>
