<svg width="17" height="16" viewBox="0 0 17 16" fill="none" xmlns="http://www.w3.org/2000/svg">
<path d="M15.7119 4.09963C14.7212 2.43667 13.1096 1.19477 11.2014 0.62385C9.29317 0.0529293 7.22997 0.195365 5.42699 1.02249C3.62401 1.84962 2.21507 3.30005 1.48371 5.08189C0.752346 6.86374 0.752843 8.84474 1.4851 10.6262C1.66472 11.07 1.87858 11.5003 2.12491 11.9137C2.23488 12.1008 2.35485 12.2823 2.48435 12.4576C2.58203 12.7328 2.59452 13.0293 2.5203 13.3112C2.41246 14.1236 2.30463 14.9085 2.1968 15.7209C3.18886 15.4524 4.18811 15.2114 5.18018 14.9429C5.36061 14.9101 5.54728 14.9343 5.71215 15.0118C7.40217 15.73 9.30073 15.8617 11.0812 15.3842C12.8617 14.9067 14.4127 13.8499 15.4674 12.3956C16.3316 11.1797 16.8139 9.75211 16.8572 8.28187C16.9005 6.81162 16.503 5.36028 15.7119 4.09963ZM13.1023 10.5436L12.0671 11.5488C11.1254 12.4231 9.34253 11.8448 7.21462 9.80698C5.08672 7.76913 4.48286 6.0411 5.40303 5.15298L6.43823 4.1616C6.47361 4.12766 6.51564 4.10075 6.56189 4.08238C6.60815 4.06402 6.65773 4.05456 6.70781 4.05456C6.75788 4.05456 6.80747 4.06402 6.85373 4.08238C6.89998 4.10075 6.94201 4.12766 6.97739 4.1616L8.41516 5.53852C8.45059 5.57241 8.4787 5.61265 8.49788 5.65695C8.51706 5.70125 8.52693 5.74874 8.52693 5.79669C8.52693 5.84465 8.51706 5.89213 8.49788 5.93643C8.4787 5.98073 8.45059 6.02098 8.41516 6.05486L7.58126 6.7984C7.73125 7.44393 8.09118 8.02726 8.60926 8.46448C9.05843 8.97249 9.66553 9.32953 10.3418 9.4834L11.1541 8.71233C11.1884 8.67774 11.2296 8.6502 11.2754 8.63138C11.3211 8.61257 11.3703 8.60286 11.4201 8.60286C11.4699 8.60286 11.5191 8.61257 11.5649 8.63138C11.6106 8.6502 11.6518 8.67774 11.6861 8.71233L13.1239 10.0892C13.1733 10.1566 13.198 10.2377 13.1941 10.32C13.1902 10.4022 13.1579 10.4809 13.1023 10.5436Z" fill="#6DA1BD"/>
</svg>
