<svg width="64" height="80" viewBox="0 0 64 80" fill="none" xmlns="http://www.w3.org/2000/svg">
<path d="M38.1561 80H8.44253C4.22488 80 0.794922 76.57 0.794922 72.3524V7.64761C0.794922 3.42997 4.22488 0 8.44253 0H38.1561C42.3738 0 45.8038 3.42997 45.8038 7.64761V18.3777C45.8038 18.92 45.3643 19.3608 44.8206 19.3608C44.277 19.3608 43.8375 18.9207 43.8375 18.3777L43.8382 7.64761C43.8382 4.51443 41.2886 1.96552 38.1561 1.96552L8.44248 1.96621C5.3093 1.96621 2.76039 4.51459 2.76039 7.6483V72.3531C2.76039 75.4863 5.31 78.0352 8.44248 78.0352L38.1561 78.0345C41.2893 78.0345 43.8382 75.4861 43.8382 72.3524V63.3425C43.8382 62.8002 44.2776 62.3593 44.8213 62.3593C45.365 62.3593 45.8044 62.7995 45.8044 63.3425V72.3524C45.8038 76.57 42.3731 80 38.1561 80Z" fill="#F25220"/>
<path d="M23.3004 5.29733C20.9591 5.29733 19.0547 3.39271 19.0547 1.05212H21.0202C21.0202 2.30949 22.0431 3.33163 23.3004 3.33163C24.5564 3.33163 25.5785 2.30875 25.5785 1.05212H27.544C27.544 3.39271 25.6394 5.29733 23.3002 5.29733H23.3004Z" fill="#F25220"/>
<path d="M25.911 74.8225H21.4636C20.9199 74.8225 20.4805 74.3823 20.4805 73.8393C20.4805 73.297 20.9199 72.8562 21.4636 72.8562H25.911C26.4547 72.8562 26.8941 73.2963 26.8941 73.8393C26.8934 74.3823 26.454 74.8225 25.911 74.8225Z" fill="#F25220"/>
<path d="M45.1612 58.0438C35.212 58.0438 27.1172 49.9492 27.1172 39.9998C27.1172 30.0504 35.2118 21.9575 45.1612 21.9575C55.1098 21.9575 63.2035 30.0515 63.2035 39.9998C63.2035 49.9483 55.1096 58.0438 45.1612 58.0438ZM45.1612 23.9215C36.2945 23.9215 29.0831 31.1338 29.0831 39.9989C29.0831 48.8656 36.2961 56.0771 45.1612 56.0771C54.0265 56.0771 61.2375 48.8647 61.2375 39.9989C61.2375 31.1343 54.0258 23.9215 45.1612 23.9215Z" fill="#F25220"/>
<path d="M55.2488 46.548C55.0288 46.548 54.8114 46.474 54.6339 46.332L51.147 43.5328V45.5656C51.147 46.1079 50.7076 46.5487 50.1639 46.5487L35.073 46.548C34.5293 46.548 34.0898 46.1079 34.0898 45.5649V35.3675C34.0898 34.8252 34.5293 34.3844 35.073 34.3844H50.1153C50.659 34.3844 51.0984 34.8245 51.0984 35.3675V36.9663L54.7025 34.5502C55.0042 34.348 55.3922 34.3288 55.7117 34.4988C56.0318 34.6695 56.2313 35.0027 56.2313 35.3654V45.5633C56.2313 45.9417 56.014 46.2859 55.674 46.4498C55.5389 46.5163 55.3942 46.5478 55.2489 46.5478L55.2488 46.548ZM36.0552 44.5825H49.1799V41.4837C49.1799 41.1053 49.3973 40.7611 49.7373 40.5972C50.0773 40.4341 50.4832 40.4793 50.778 40.7172L54.2648 43.5164V37.2097L50.6608 39.6257C50.3577 39.828 49.9711 39.8478 49.6516 39.6771C49.3314 39.5064 49.1319 39.1732 49.1319 38.8106V36.3527L36.0551 36.3514L36.0552 44.5825Z" fill="#F25220"/>
</svg>
