<svg width="26" height="18" viewBox="0 0 26 18" fill="none" xmlns="http://www.w3.org/2000/svg">
<path d="M12.9919 0C12.9919 0 4.86588 7.45802e-06 2.82634 0.524284C1.73431 0.826135 0.835099 1.7157 0.529971 2.81191C1.20745e-05 4.82956 0 9.00795 0 9.00795C0 9.00795 1.20745e-05 13.2022 0.529971 15.1881C0.835099 16.2843 1.71825 17.158 2.82634 17.4598C4.88194 18 12.9919 18 12.9919 18C12.9919 18 21.1341 18 23.1736 17.4757C24.2817 17.1739 25.1648 16.3161 25.4539 15.204C25.9999 13.2022 26 9.02384 26 9.02384C26 9.02384 26.016 4.82956 25.4539 2.81191C25.1648 1.7157 24.2817 0.842043 23.1736 0.556074C21.1341 2.54058e-05 12.9919 0 12.9919 0ZM10.4064 5.14747L17.1674 9.00795L10.4064 12.8525V5.14747Z" fill="#6DA1BD"/>
</svg>
