<svg fill="none" xmlns="http://www.w3.org/2000/svg">
<g clip-path="url(#clip0_543_10783)">
<circle cx="12" cy="12" r="11.25" stroke="#6DA1BD" stroke-width="1.5"/>
<path d="M16.4302 13.8122L16.3017 13.6974C15.8094 13.2514 14.7959 12.6929 13.5389 13.9493C13.3523 14.1362 12.8898 13.9401 12.6994 13.8478C12.1599 13.5628 11.6688 13.1943 11.2443 12.756C10.8059 12.3316 10.4375 11.8405 10.1525 11.3011C10.0603 11.1106 9.86542 10.6472 10.051 10.4616C11.3085 9.20421 10.7484 8.19082 10.3029 7.69856L10.1881 7.56999C9.59683 6.90809 8.60611 5.79397 7.56494 6.03305C6.95921 6.16925 6.50748 6.73233 6.22248 7.70529C5.53344 10.0598 6.44122 12.4466 8.99771 15.0024C11.0039 17.0093 12.9062 18 14.7704 18C15.2867 17.9991 15.8004 17.924 16.2955 17.7773C17.2686 17.4925 17.8316 17.0408 17.9679 16.435C18.2029 15.3926 17.0931 14.4031 16.4302 13.8122Z" fill="#6DA1BD"/>
</g>
<defs>
<clipPath id="clip0_543_10783">
<rect width="24" height="24" fill="white"/>
</clipPath>
</defs>
</svg>
