<svg width="19" height="18" viewBox="0 0 19 18" fill="none" xmlns="http://www.w3.org/2000/svg">
<path fill-rule="evenodd" clip-rule="evenodd" d="M15.2204 11.7307V13.3839C15.2216 13.6942 15.0893 13.9907 14.8558 14.2005C14.6223 14.4103 14.3093 14.514 13.9937 14.486C12.2621 14.3018 10.5989 13.7223 9.13756 12.7943C7.77798 11.9482 6.62529 10.8194 5.76136 9.48789C4.81038 8.05027 4.21857 6.4135 4.03387 4.71016C4.00544 4.40205 4.11055 4.09642 4.32353 3.86793C4.53651 3.63944 4.83774 3.50913 5.15364 3.50884H6.84174C7.40662 3.5034 7.88809 3.9089 7.96715 4.45667C8.0384 4.98573 8.17053 5.5052 8.36104 6.00516C8.51563 6.40792 8.41675 6.86196 8.10782 7.16791L7.39319 7.86776C8.19423 9.24737 9.36065 10.3897 10.7694 11.1741L11.484 10.4743C11.7964 10.1717 12.2601 10.0749 12.6713 10.2263C13.1818 10.4129 13.7123 10.5423 14.2525 10.6121C14.8183 10.6902 15.2345 11.1713 15.2204 11.7307Z" stroke="#F25220" stroke-linecap="round" stroke-linejoin="round"/>
</svg>
