<svg width="20" height="20" viewBox="0 0 20 20" fill="none" xmlns="http://www.w3.org/2000/svg">
<path d="M18.9515 4.62652C18.5658 4.52924 18.1551 4.57788 17.803 4.77244C17.4593 4.9751 17.2078 5.29125 17.0988 5.66415L15.506 11.9872C15.3886 12.4898 15.0952 12.9357 14.6761 13.2518C14.2569 13.568 13.7455 13.7382 13.209 13.7382H6.77912C6.25099 13.7382 5.73123 13.568 5.31207 13.2518C4.89291 12.9357 4.5995 12.4898 4.48214 11.9872L2.88934 5.66415C2.81389 5.3561 2.62946 5.07238 2.36958 4.87782C2.10971 4.68327 1.78276 4.57788 1.45582 4.58599C1.25462 4.58599 1.05343 4.62652 0.860616 4.69137C0.542057 4.8535 0.282179 5.11291 0.139665 5.42906C-0.0112317 5.74522 -0.0363811 6.1019 0.0474504 6.44237L1.64025 12.7654C2.05941 14.3462 3.24143 15.6351 4.81747 16.235L3.63544 18.8777C3.56838 19.048 3.63544 19.2425 3.78634 19.3398H4.0043C4.1049 19.3398 4.19711 19.3074 4.26418 19.2344L6.48571 16.5187H13.5108L15.7323 19.2344C15.7994 19.3074 15.8916 19.3479 15.9922 19.3398H16.2102C16.3611 19.2344 16.4281 19.048 16.3611 18.8777L15.179 16.235C16.7635 15.6513 17.9455 14.3543 18.3563 12.7654L19.9491 6.44237C20.0497 6.06947 19.9994 5.68036 19.8149 5.348C19.6305 5.00752 19.3203 4.75622 18.9515 4.62652Z" fill="#6DA1BD"/>
<path d="M3.65226 5.51822L5.24506 11.8413C5.32889 12.1818 5.53008 12.4817 5.80673 12.6925C6.08337 12.9032 6.43546 13.0248 6.79594 13.0248H13.2258C13.5863 13.0248 13.93 12.9113 14.215 12.6925C14.5001 12.4736 14.6929 12.1818 14.7767 11.8413L16.403 5.51822C16.512 4.93455 16.8976 4.43195 17.4342 4.15633L18.0629 3.90503C18.2306 3.88881 18.3563 3.751 18.3563 3.58077V3.43485C18.3563 3.05384 18.197 2.68905 17.9204 2.42154C17.6437 2.15402 17.2665 2 16.8725 2H3.1325C2.73849 2 2.36125 2.15402 2.08461 2.42154C1.80796 2.68905 1.64868 3.05384 1.64868 3.43485V3.58077C1.64868 3.7429 1.77443 3.88071 1.94209 3.90503L2.46185 4.08337C3.04867 4.3752 3.48459 4.89402 3.64387 5.51011L3.65226 5.51822Z" fill="#6DA1BD"/>
</svg>
