<svg width="19" height="18" viewBox="0 0 19 18" fill="none" xmlns="http://www.w3.org/2000/svg">
<g clip-path="url(#clip0_719_22501)">
<path fill-rule="evenodd" clip-rule="evenodd" d="M9.97034 11.7043C11.4641 11.7043 12.675 10.4934 12.675 8.99963C12.675 7.50586 11.4641 6.29492 9.97034 6.29492C8.47657 6.29492 7.26562 7.50586 7.26562 8.99963C7.26562 10.4934 8.47657 11.7043 9.97034 11.7043ZM9.97034 12.7043C12.0164 12.7043 13.675 11.0457 13.675 8.99963C13.675 6.95358 12.0164 5.29492 9.97034 5.29492C7.92428 5.29492 6.26562 6.95358 6.26562 8.99963C6.26562 11.0457 7.92428 12.7043 9.97034 12.7043Z" fill="white"/>
<path fill-rule="evenodd" clip-rule="evenodd" d="M18.0534 9.70568C13.7195 4.90498 6.14367 4.92598 1.77754 9.70777L1.03906 9.03349C5.79809 3.8214 14.061 3.79102 18.7957 9.03558L18.0534 9.70568Z" fill="white"/>
<path fill-rule="evenodd" clip-rule="evenodd" d="M1.78253 8.29432C6.11647 13.095 13.6923 13.074 18.0584 8.29223L18.7969 8.96651C14.0378 14.1786 5.7749 14.209 1.04026 8.96442L1.78253 8.29432Z" fill="white"/>
</g>
<defs>
<clipPath id="clip0_719_22501">
<rect width="18" height="18" fill="white" transform="translate(0.96875)"/>
</clipPath>
</defs>
</svg>
