<svg viewBox="0 0 26 26" xmlns="http://www.w3.org/2000/svg">
<g clip-path="url(#clip0_534_13008)">
<path d="M21.4973 5.54559L20.7404 23.7088C20.7162 24.2854 20.2182 24.7621 19.6395 24.7621H6.43317C5.85454 24.7621 5.35654 24.2842 5.3323 23.7088L4.57543 5.54559C4.56133 5.20388 4.27287 4.93846 3.93117 4.95285C3.58975 4.96695 3.32432 5.25541 3.33843 5.59712L4.09529 23.7603C4.14682 24.9993 5.19093 26 6.43316 26H19.6395C20.8812 26 21.9256 25.0008 21.9774 23.7603L22.7343 5.59712C22.7484 5.25541 22.4829 4.96695 22.1415 4.95285C21.7998 4.93845 21.5114 5.20387 21.4973 5.54559Z"/>
<path d="M12.623 8.04757V22.0793C12.623 22.4213 12.9003 22.6986 13.2423 22.6986C13.584 22.6986 13.8612 22.4213 13.8612 22.0793V8.04757C13.8612 7.70558 13.584 7.42835 13.2423 7.42835C12.9003 7.42835 12.623 7.70558 12.623 8.04757Z"/>
<path d="M7.87723 8.066L8.29004 22.0978C8.29983 22.4398 8.58512 22.7086 8.92682 22.6986C9.26853 22.6885 9.53741 22.4032 9.52733 22.0615L9.1148 8.02972C9.10473 7.68773 8.81944 7.41885 8.47773 7.42893C8.13603 7.43901 7.86715 7.72429 7.87723 8.066Z"/>
<path d="M16.9558 8.02915L16.5432 22.0609C16.5332 22.4026 16.802 22.6879 17.1438 22.698C17.4855 22.7081 17.7707 22.4392 17.7805 22.0972L18.1933 8.06542C18.2034 7.72372 17.9345 7.43843 17.5928 7.42836C17.2511 7.41828 16.9658 7.68715 16.9558 8.02915Z"/>
<path d="M2.71854 3.50788H23.3535C23.6955 3.50788 23.9724 3.23066 23.9724 2.88895C23.9724 2.54696 23.6955 2.26974 23.3535 2.26974H2.71854C2.37655 2.26974 2.09961 2.54696 2.09961 2.88895C2.09961 3.23066 2.37655 3.50788 2.71854 3.50788Z"/>
<path d="M9.48378 2.91242L9.92538 1.80815C10.0428 1.51423 10.4508 1.23787 10.766 1.23787H15.3058C15.623 1.23787 16.0281 1.51222 16.1464 1.80815L16.588 2.91242L17.7378 2.45239L17.2959 1.34842C16.9896 0.582127 16.1294 0 15.3058 0H10.766C9.94462 0 9.08135 0.584102 8.77587 1.34842L8.33398 2.45239L9.48378 2.91242Z"/>
</g>
<defs>
<clipPath id="clip0_534_13008">
<rect width="26" height="26" fill="white"/>
</clipPath>
</defs>
</svg>
