<svg width="19" height="18" viewBox="0 0 19 18" fill="none" xmlns="http://www.w3.org/2000/svg">
<path fill-rule="evenodd" clip-rule="evenodd" d="M9.6243 3.76953C6.76202 3.76953 4.43555 6.10762 4.43555 8.99939C4.43555 11.8912 6.76202 14.2292 9.6243 14.2292C12.4866 14.2292 14.8131 11.8912 14.8131 8.99939C14.8131 6.10762 12.4866 3.76953 9.6243 3.76953ZM3.43555 8.99939C3.43555 5.56213 6.20296 2.76953 9.6243 2.76953C13.0456 2.76953 15.8131 5.56213 15.8131 8.99939C15.8131 12.4366 13.0456 15.2292 9.6243 15.2292C6.20296 15.2292 3.43555 12.4366 3.43555 8.99939Z" fill="#F25220"/>
<path fill-rule="evenodd" clip-rule="evenodd" d="M10.125 5.06152V8.79338L12.0387 10.7209L11.3291 11.4255L9.27018 9.35172C9.17719 9.25805 9.125 9.13142 9.125 8.99944V5.06152H10.125Z" fill="#F25220"/>
</svg>
