<svg width="80" height="80" viewBox="0 0 80 80" fill="none" xmlns="http://www.w3.org/2000/svg">
<g clip-path="url(#clip0_424_9677)">
<path d="M50.3299 25.24C50.5499 25.02 50.6799 24.72 50.6799 24.4C50.6799 24.08 50.5499 23.78 50.3299 23.56C50.1099 23.34 49.8099 23.22 49.4899 23.22H16.2299C16.2299 23.22 16.1599 23.22 16.1399 23.22C16.1099 23.22 16.0699 23.22 16.0399 23.22H16.0299C15.3799 23.28 14.8999 23.86 14.9699 24.51C15.0299 25.12 15.5399 25.58 16.1299 25.58C16.1599 25.58 16.1999 25.58 16.2299 25.58H49.4899C49.7899 25.59 50.1099 25.46 50.3299 25.24Z" fill="#EB5A1E"/>
<path d="M50.3399 30.79C50.5599 30.57 50.6899 30.26 50.6899 29.95C50.6899 29.64 50.5599 29.33 50.3399 29.11C50.1199 28.89 49.8099 28.78 49.4999 28.77H27.3199C27.3199 28.77 27.2499 28.77 27.2299 28.77C27.1899 28.77 27.1599 28.77 27.1199 28.77H27.1099C26.7999 28.8 26.5099 28.95 26.3099 29.19C26.1099 29.43 26.0099 29.74 26.0399 30.05C26.0999 30.66 26.6099 31.12 27.1899 31.12C27.2299 31.12 27.2599 31.12 27.2999 31.12H49.4799C49.7799 31.11 50.0999 31 50.3199 30.78L50.3399 30.79Z" fill="#EB5A1E"/>
<path d="M66.1299 63.48C68.3099 63.48 70.0799 61.71 70.0799 59.53C70.0799 57.35 68.3099 55.58 66.1299 55.58C63.9499 55.58 62.1799 57.35 62.1799 59.53C62.1799 61.71 63.9499 63.48 66.1299 63.48ZM64.5299 59.53C64.5299 58.63 65.2299 57.93 66.1299 57.93C67.0299 57.93 67.7299 58.63 67.7299 59.53C67.7299 60.43 67.0299 61.13 66.1299 61.13C65.2299 61.13 64.5299 60.43 64.5299 59.53Z" fill="#EB5A1E"/>
<path d="M79.78 38.0101L71.46 26.4801C71.24 26.1801 70.89 26.0001 70.52 26.0001H55.97V18.8601C55.97 18.2101 55.44 17.6801 54.79 17.6801H1.18C1.18 17.6801 1.11 17.6801 1.09 17.6801C1.06 17.6801 1.02 17.6801 0.99 17.6801H0.75V17.7401C0.3 17.9201 0 18.3601 0 18.8601V59.5301C0 60.1801 0.53 60.7101 1.18 60.7101H7.48C8.06 65.4701 12.07 69.0301 16.89 69.0301C22.13 69.0301 26.38 64.7701 26.38 59.5301C26.38 54.2901 22.12 50.0401 16.89 50.0401C12.07 50.0401 8.06 53.6001 7.48 58.3601H2.35V20.0301H53.61V58.3601H30.76C30.44 58.3701 30.14 58.4801 29.92 58.7001C29.7 58.9201 29.57 59.2201 29.57 59.5401C29.57 59.8601 29.7 60.1601 29.92 60.3801C30.14 60.6001 30.46 60.7301 30.76 60.7201H56.48C57.06 65.4801 61.07 69.0401 65.89 69.0401C70.71 69.0401 74.72 65.4801 75.3 60.7201H78.83C79.48 60.7201 80.01 60.1901 80.01 59.5401V38.7101C80.01 38.4601 79.94 38.2201 79.79 38.0101H79.78ZM77.65 47.7701V50.9701H75.38V47.7701H77.65ZM65.88 52.3901C69.82 52.3901 73.02 55.5901 73.02 59.5401C73.02 63.4901 69.82 66.6801 65.88 66.6801C61.94 66.6801 58.73 63.4801 58.73 59.5401C58.73 55.6001 61.93 52.3901 65.88 52.3901ZM63.11 43.1501H77.65V45.4201H74.21C74.21 45.4201 74.14 45.4201 74.09 45.4201C73.48 45.4801 73.02 45.9801 73.02 46.5901V52.1401C73.02 52.7901 73.55 53.3201 74.2 53.3201H77.65V58.3601H75.29C74.71 53.6001 70.7 50.0401 65.88 50.0401C61.06 50.0401 57.05 53.6001 56.47 58.3601H55.96V28.3501H61.93V41.9701C61.93 42.6201 62.46 43.1501 63.11 43.1501ZM64.29 40.8001V28.3601H69.89L77.65 39.1101V40.8001H64.29ZM9.75 59.5301C9.75 55.5901 12.95 52.3801 16.89 52.3801C20.83 52.3801 24.03 55.5801 24.03 59.5301C24.03 63.4801 20.83 66.6701 16.89 66.6701C12.95 66.6701 9.75 63.4701 9.75 59.5301Z" fill="#EB5A1E"/>
<path d="M17.1399 63.48C19.3199 63.48 21.0899 61.71 21.0899 59.53C21.0899 57.35 19.3199 55.58 17.1399 55.58C14.9599 55.58 13.1899 57.35 13.1899 59.53C13.1899 61.71 14.9599 63.48 17.1399 63.48ZM15.5399 59.53C15.5399 58.63 16.2399 57.93 17.1399 57.93C18.0399 57.93 18.7399 58.63 18.7399 59.53C18.7399 60.43 18.0399 61.13 17.1399 61.13C16.2399 61.13 15.5399 60.43 15.5399 59.53Z" fill="#EB5A1E"/>
</g>
<defs>
<clipPath id="clip0_424_9677">
<rect width="80" height="80" fill="white"/>
</clipPath>
</defs>
</svg>
