<svg width="20" height="20" viewBox="0 0 20 20" fill="none" xmlns="http://www.w3.org/2000/svg">
<g clip-path="url(#clip0_878_31089)">
<path d="M15.6454 0H0V3.91674H15.6454V0Z" fill="#6DA1BD"/>
<path d="M3.73751 10.7921C2.23381 10.7417 1.14733 9.52297 0.860495 8.31265C0.591047 7.17797 1.00826 6.19458 1.95567 5.74071C2.68579 5.3877 3.35506 5.33727 3.94611 5.57261C4.85007 5.94243 5.18036 6.8922 5.19774 6.93422C5.22382 7.01827 5.47588 7.79154 5.08475 8.3967C4.93698 8.62363 4.62408 8.91781 4.02434 8.98505C3.12038 9.09431 2.68579 8.2286 2.59887 7.74951C2.55541 7.52258 2.71186 7.30405 2.94655 7.26202C3.18123 7.22 3.40721 7.37129 3.45067 7.59822C3.45067 7.59822 3.55498 8.19498 3.91134 8.14455C4.23294 8.11093 4.31117 7.98485 4.33724 7.94283C4.48501 7.71589 4.39809 7.31245 4.36332 7.18637C4.36332 7.18637 4.13733 6.556 3.59844 6.33747C3.25076 6.20299 2.83355 6.25342 2.33811 6.48876C1.50369 6.8922 1.61669 7.75792 1.70361 8.11933C1.9209 9.00186 2.72925 9.94322 3.80704 9.94322C4.62408 9.94322 5.3455 9.60702 5.78879 9.02707C6.25815 8.4051 6.36245 7.5646 6.08431 6.71569C5.55411 5.11874 4.45024 4.82456 4.0678 4.77413L0 4.75732V20.1721H15.6454V10.8005H3.73751V10.7921Z" fill="#6DA1BD"/>
<path d="M17.2883 4.74048H17.2014H5.78027C6.21487 5.07668 6.64077 5.6062 6.91891 6.4467C7.28397 7.55616 7.13621 8.67403 6.5017 9.51453C6.37132 9.68263 6.22356 9.82551 6.06711 9.9684H17.2449C18.7659 9.9684 20.0002 8.7917 20.0002 7.35444C20.0002 5.91718 18.792 4.76569 17.297 4.74048H17.2883Z" fill="#6DA1BD"/>
</g>
<defs>
<clipPath id="clip0_878_31089">
<rect width="20" height="20" fill="white"/>
</clipPath>
</defs>
</svg>
