<svg viewBox="0 0 18 18" xmlns="http://www.w3.org/2000/svg">
<path d="M17.0246 16.7632H0.974984C0.621239 16.7632 0.305259 16.5799 0.129551 16.2727C-0.0457563 15.9651 -0.0430166 15.5998 0.136986 15.2948L8.16156 1.715C8.33863 1.41565 8.65168 1.23682 8.99993 1.23682C9.348 1.23682 9.66124 1.41565 9.8383 1.715L17.8629 15.2948C18.0427 15.5998 18.0456 15.9651 17.8703 16.2727C17.6938 16.5799 17.3777 16.7632 17.0241 16.7632H17.0246ZM9.00006 1.93719C8.9535 1.93719 8.83708 1.9501 8.76586 2.07122L0.741284 15.651C0.668697 15.7741 0.715653 15.8831 0.739132 15.9242C0.763002 15.9658 0.833046 16.0615 0.975486 16.0615H17.0251C17.1676 16.0615 17.2376 15.9658 17.2615 15.9242C17.285 15.8831 17.3319 15.7737 17.2593 15.651L9.23477 2.07122C9.16355 1.9503 9.04713 1.93719 9.00057 1.93719H9.00006Z"/>
<path d="M8.99957 12.9064C8.62235 12.9064 8.3042 12.6239 8.25977 12.249L7.65146 7.07644C7.627 6.86494 7.69352 6.65285 7.83479 6.49397C7.97566 6.33568 8.17875 6.24451 8.39121 6.24451H9.6082C9.82029 6.24451 10.0238 6.33568 10.1646 6.49417C10.3059 6.65304 10.3728 6.86552 10.348 7.07624L9.73929 12.2483C9.69487 12.6236 9.37674 12.9061 8.99949 12.9061L8.99957 12.9064ZM8.39125 6.94596C8.37834 6.94596 8.36738 6.95085 8.35858 6.96064C8.34978 6.97042 8.34625 6.98196 8.34762 6.99507L8.95594 12.1666C8.96161 12.2105 9.03733 12.2109 9.04281 12.1663L9.65113 6.99468C9.6525 6.98196 9.64898 6.97081 9.64017 6.96064C9.63215 6.95085 9.6208 6.94596 9.60789 6.94596H8.39125Z"/>
<path d="M8.99911 15.3608C8.41919 15.3608 7.94727 14.8889 7.94727 14.309C7.94727 13.729 8.41919 13.2571 8.99911 13.2571C9.57903 13.2571 10.051 13.729 10.051 14.309C10.051 14.8889 9.57903 15.3608 8.99911 15.3608ZM8.99911 13.9583C8.80561 13.9583 8.6485 14.1155 8.6485 14.309C8.6485 14.5025 8.80561 14.6596 8.99911 14.6596C9.19262 14.6596 9.34973 14.5025 9.34973 14.309C9.34973 14.1155 9.19262 13.9583 8.99911 13.9583Z"/>
</svg>
