<svg width="20" height="20" viewBox="0 0 20 20" fill="none" xmlns="http://www.w3.org/2000/svg">
<path d="M3.06837 0H2.2019V1.90197H3.06837V0Z" fill="#6DA1BD"/>
<path d="M17.7984 0H16.9319V1.90197H17.7984V0Z" fill="#6DA1BD"/>
<path d="M10.4334 0H9.56689V1.90197H10.4334V0Z" fill="#6DA1BD"/>
<path d="M7.98121 0H7.11475V1.90197H7.98121V0Z" fill="#6DA1BD"/>
<path d="M5.52906 0H4.6626V1.90197H5.52906V0Z" fill="#6DA1BD"/>
<path d="M12.8855 0H12.019V1.90197H12.8855V0Z" fill="#6DA1BD"/>
<path d="M15.3462 0H14.4797V1.90197H15.3462V0Z" fill="#6DA1BD"/>
<path d="M10.0059 7.2542L7.16919 9.99731L10.0059 12.7404L12.8426 9.99731L10.0059 7.2542Z" fill="#6DA1BD"/>
<path d="M17.7983 1.9021H2.2019V18.0981V20.0001H3.07704V18.0981H4.66267V20.0001H5.52914V18.0981H7.11477V20.0001H7.98124V18.0981H9.56687V20.0001H10.4333V18.0981H12.019V20.0001H12.8854V18.0981H14.4711V20.0001H15.3375V18.0981H16.9232V20.0001H17.7896V18.0981V1.9021H17.7983ZM16.4986 16.7408H3.42362V15.9029H16.4986V16.7408ZM5.93638 9.99593L10.0001 6.06632L14.0638 9.99593L10.0001 13.9255L5.93638 9.99593ZM16.4986 4.33193H3.42362V3.49405H16.4986V4.33193Z" fill="#6DA1BD"/>
</svg>
