<svg viewBox="0 0 18 18" xmlns="http://www.w3.org/2000/svg">
<path fill-rule="evenodd" clip-rule="evenodd" d="M4.74527 4.66262C4.83999 4.55901 4.97391 4.5 5.11429 4.5H17C17.2761 4.5 17.5 4.72386 17.5 5V14C17.5 14.2761 17.2761 14.5 17 14.5H5.11429C4.97391 14.5 4.83999 14.441 4.74527 14.3374L0.630986 9.83738C0.456338 9.64636 0.456338 9.35364 0.630986 9.16262L4.74527 4.66262ZM5.33462 5.5L1.67748 9.5L5.33462 13.5H16.5V5.5H5.33462Z"/>
<path fill-rule="evenodd" clip-rule="evenodd" d="M8.5 8C8.77614 8 9 7.77614 9 7.5C9 7.22386 8.77614 7 8.5 7C8.22386 7 8 7.22386 8 7.5C8 7.77614 8.22386 8 8.5 8ZM8.5 9C9.32843 9 10 8.32843 10 7.5C10 6.67157 9.32843 6 8.5 6C7.67157 6 7 6.67157 7 7.5C7 8.32843 7.67157 9 8.5 9Z"/>
<path fill-rule="evenodd" clip-rule="evenodd" d="M12.5 12C12.7761 12 13 11.7761 13 11.5C13 11.2239 12.7761 11 12.5 11C12.2239 11 12 11.2239 12 11.5C12 11.7761 12.2239 12 12.5 12ZM12.5 13C13.3284 13 14 12.3284 14 11.5C14 10.6716 13.3284 10 12.5 10C11.6716 10 11 10.6716 11 11.5C11 12.3284 11.6716 13 12.5 13Z"/>
<path fill-rule="evenodd" clip-rule="evenodd" d="M13.7071 7.00008L8.00001 12.7072L7.29291 12.0001L13 6.29297L13.7071 7.00008Z"/>
</svg>
