<svg width="21" height="20" viewBox="0 0 21 20" fill="none" xmlns="http://www.w3.org/2000/svg">
<path d="M20.75 10C20.75 15.5228 16.2728 20 10.75 20C5.22715 20 0.75 15.5228 0.75 10C0.75 4.47715 5.22715 0 10.75 0C16.2728 0 20.75 4.47715 20.75 10Z" fill="#6DA1BD"/>
<path fill-rule="evenodd" clip-rule="evenodd" d="M15.25 6H6.25L6.25 14H15.25V6ZM6.25 4C5.14543 4 4.25 4.89543 4.25 6V14C4.25 15.1046 5.14543 16 6.25 16H15.25C16.3546 16 17.25 15.1046 17.25 14V6C17.25 4.89543 16.3546 4 15.25 4H6.25Z" fill="white"/>
<path fill-rule="evenodd" clip-rule="evenodd" d="M8.75 4.797H12.75V11.156L10.7518 9.22264L8.75 11.1369V4.797Z" fill="white"/>
</svg>
