<svg width="71" height="97" viewBox="0 0 71 97" fill="none" xmlns="http://www.w3.org/2000/svg">
<path d="M66.6417 19.3895C64.0982 14.0713 60.2184 9.50288 55.381 6.13009C50.5436 2.7573 44.9138 0.695339 39.041 0.14542C36.6843 -0.0484735 34.3157 -0.0484735 31.959 0.14542C26.0862 0.695339 20.4564 2.7573 15.619 6.13009C10.7816 9.50288 6.90184 14.0713 4.35829 19.3895C1.53785 25.001 0.224855 31.2485 0.547988 37.5197C0.871122 43.791 2.8193 49.8707 6.20157 55.163L31.4254 94.7176C31.8627 95.4011 32.4652 95.9636 33.1773 96.3533C33.8893 96.7429 34.6881 96.9472 35.5 96.9472C36.3119 96.9472 37.1107 96.7429 37.8227 96.3533C38.5348 95.9636 39.1373 95.4011 39.5746 94.7176L64.7984 55.163C68.1807 49.8707 70.1289 43.791 70.452 37.5197C70.7751 31.2485 69.4621 25.001 66.6417 19.3895Z" fill="#F25220"/>
<path d="M31.5984 51.5284H29.1973V30.9824H42.3995V33.3818H31.5984V51.5284Z" fill="white"/>
<path d="M41.984 51.5504H39.5791C39.5821 48.143 40.9377 44.876 43.3484 42.4663C45.7591 40.0565 49.028 38.7009 52.4377 38.6969V41.0963C49.6648 41.0993 47.0065 42.202 45.0464 44.162C43.0864 46.1221 41.985 48.7794 41.984 51.5504Z" fill="white"/>
<path d="M26.0795 42.9189C23.3214 42.9255 20.5925 42.3549 18.0684 41.2438L19.0348 39.0481C22.1533 40.4121 25.6015 40.8401 28.9592 40.2801C32.3169 39.7201 35.439 38.1962 37.9453 35.8942C41.1556 32.9498 43.1496 28.9134 43.5365 24.5762L45.9262 24.7874C45.4856 29.7434 43.2039 34.3549 39.5306 37.7136C35.8572 41.0722 31.0585 42.9347 26.0795 42.934V42.9189Z" fill="white"/>
<path d="M47.6803 52.7278H17.3496V34.8755C17.3479 33.7274 17.5846 32.5915 18.0447 31.5395C18.5048 30.4875 19.1782 29.5424 20.0225 28.7638L35.5012 14.5785L53.6528 31.2122V46.6462C53.6649 48.2433 53.0431 49.78 51.9237 50.9199C50.8043 52.0598 49.2784 52.7099 47.6803 52.7278ZM19.7432 50.3284H47.6803C48.1566 50.321 48.6268 50.2199 49.0639 50.0308C49.5011 49.8417 49.8966 49.5683 50.228 49.2263C50.5593 48.8844 50.8199 48.4805 50.995 48.0377C51.17 47.595 51.256 47.1222 51.248 46.6462V32.2686L35.5012 17.8343L21.6459 30.5331C21.0481 31.0873 20.5717 31.7593 20.2468 32.5067C19.9219 33.2541 19.7556 34.0606 19.7583 34.8755L19.7432 50.3284Z" fill="white"/>
</svg>
