<svg width="18" height="18" viewBox="0 0 18 18" fill="none" xmlns="http://www.w3.org/2000/svg">
<path fill-rule="evenodd" clip-rule="evenodd" d="M9 15C12.3137 15 15 12.3137 15 9C15 5.68629 12.3137 3 9 3C5.68629 3 3 5.68629 3 9C3 12.3137 5.68629 15 9 15ZM9 16C12.866 16 16 12.866 16 9C16 5.13401 12.866 2 9 2C5.13401 2 2 5.13401 2 9C2 12.866 5.13401 16 9 16Z" fill="#EB5A1E"/>
<path fill-rule="evenodd" clip-rule="evenodd" d="M8.5 11V5H9.5V11H8.5Z" fill="#EB5A1E"/>
<path fill-rule="evenodd" clip-rule="evenodd" d="M8.5 13L8.5 12L9.5 12L9.5 13L8.5 13Z" fill="#EB5A1E"/>
</svg>
