<svg width="20" height="20" viewBox="0 0 20 20" fill="none" xmlns="http://www.w3.org/2000/svg">
<g clip-path="url(#clip0_878_31121)">
<path d="M12.8992 0.00766661L2.46243 0.982732C2.32454 1.01607 2.22974 1.12441 2.22974 1.25775V18.7422C2.22974 18.8756 2.32454 18.9839 2.46243 19.0173L12.8992 19.9923C13.0888 20.034 13.2698 19.9007 13.2698 19.7173V0.282685C13.2698 0.0993394 13.0888 -0.0340028 12.8992 0.00766661ZM10.6757 10.8501C10.3137 10.8501 10.0207 10.4667 10.0207 10C10.0207 9.5333 10.3137 9.14994 10.6757 9.14994C11.0377 9.14994 11.3307 9.5333 11.3307 10C11.3307 10.4667 11.0377 10.8501 10.6757 10.8501Z" fill="#6DA1BD"/>
<path d="M17.0705 1.11597H14.1575V1.86602H16.812V18.2754H14.123V19.0255H17.0705C17.3463 19.0255 17.5704 18.7921 17.5704 18.5088V1.63267C17.5704 1.34932 17.3463 1.11597 17.0705 1.11597Z" fill="#6DA1BD"/>
</g>
<defs>
<clipPath id="clip0_878_31121">
<rect width="20" height="20" fill="white"/>
</clipPath>
</defs>
</svg>
