<svg width="21" height="20" viewBox="0 0 21 20" fill="none" xmlns="http://www.w3.org/2000/svg">
<path d="M20.5625 10C20.5625 15.5228 16.0853 20 10.5625 20C5.03965 20 0.5625 15.5228 0.5625 10C0.5625 4.47715 5.03965 0 10.5625 0C16.0853 0 20.5625 4.47715 20.5625 10Z" fill="#F2C94C"/>
<path fill-rule="evenodd" clip-rule="evenodd" d="M15.6602 7.03162H5.46484L5.46484 12.9683H15.6602V7.03162ZM5.46484 5.03162C4.36027 5.03162 3.46484 5.92705 3.46484 7.03162V12.9683C3.46484 14.0729 4.36027 14.9683 5.46484 14.9683H15.6602C16.7647 14.9683 17.6602 14.0729 17.6602 12.9683V7.03162C17.6602 5.92705 16.7647 5.03162 15.6602 5.03162H5.46484Z" fill="white"/>
<path fill-rule="evenodd" clip-rule="evenodd" d="M16.7688 10.2983H4.38672V8.29834H16.7688V10.2983Z" fill="white"/>
</svg>
