<svg width="26" height="16" viewBox="0 0 26 16" fill="none" xmlns="http://www.w3.org/2000/svg">
<path d="M25.8621 14.4498C25.8306 14.3766 25.8013 14.3159 25.774 14.2672C25.3229 13.3909 24.4609 12.3154 23.1884 11.0402L23.1615 11.011L23.1481 10.9966L23.1345 10.982H23.1208C22.5433 10.3882 22.1776 9.98892 22.0245 9.78451C21.7442 9.39512 21.6815 9.00098 21.8346 8.60162C21.9428 8.2999 22.3492 7.66268 23.053 6.68912C23.4231 6.17316 23.7163 5.75964 23.9328 5.44809C25.4942 3.20916 26.1711 1.77845 25.9634 1.1554L25.8828 1.0098C25.8286 0.922148 25.6887 0.841959 25.4634 0.768828C25.2375 0.695851 24.9488 0.683782 24.5967 0.732417L20.6981 0.761464C20.635 0.737326 20.5448 0.739576 20.4273 0.768828C20.31 0.798081 20.2513 0.812759 20.2513 0.812759L20.1834 0.849324L20.1295 0.893253C20.0844 0.922301 20.0348 0.973391 19.9806 1.04642C19.9267 1.11919 19.8816 1.2046 19.8455 1.30192C19.4211 2.47974 18.9385 3.57481 18.3969 4.58709C18.063 5.1907 17.7563 5.71382 17.4762 6.15675C17.1965 6.59952 16.9619 6.92575 16.7725 7.13486C16.5828 7.34418 16.4117 7.51187 16.2579 7.63855C16.1045 7.76527 15.9873 7.81882 15.9062 7.79923C15.8249 7.77964 15.7483 7.76021 15.6758 7.74077C15.5495 7.65312 15.448 7.53391 15.3714 7.38305C15.2945 7.23218 15.2427 7.0423 15.2156 6.81354C15.1887 6.58464 15.1728 6.38775 15.1682 6.22221C15.164 6.05687 15.1659 5.823 15.1751 5.52127C15.1845 5.21939 15.1887 5.01513 15.1887 4.90805C15.1887 4.5381 15.1954 4.13659 15.2088 3.70343C15.2225 3.27027 15.2335 2.92706 15.2428 2.67422C15.252 2.42113 15.2562 2.15336 15.2562 1.87106C15.2562 1.58877 15.2403 1.36738 15.2088 1.20669C15.1777 1.04621 15.13 0.890441 15.067 0.739423C15.0037 0.588558 14.9111 0.471855 14.7895 0.389007C14.6677 0.306262 14.5163 0.240597 14.3361 0.191809C13.8577 0.0750551 13.2486 0.0118965 12.5084 0.00207753C10.8299 -0.0173559 9.75134 0.0995513 9.27303 0.352646C9.08351 0.459581 8.91202 0.60569 8.75868 0.790512C8.59619 1.00474 8.57353 1.12165 8.69083 1.14088C9.23239 1.22838 9.61578 1.4377 9.84143 1.76863L9.92274 1.94399C9.98599 2.07051 10.0491 2.29451 10.1124 2.61567C10.1755 2.93683 10.2162 3.29211 10.2341 3.68129C10.2792 4.39199 10.2792 5.00036 10.2341 5.50644C10.1889 6.01273 10.1463 6.40687 10.1055 6.68917C10.0648 6.97147 10.0039 7.20022 9.92274 7.37538C9.84143 7.55058 9.78733 7.65767 9.76021 7.69654C9.73314 7.73541 9.71057 7.7599 9.69264 7.76952C9.57534 7.818 9.45334 7.8427 9.32708 7.8427C9.20063 7.8427 9.04729 7.77448 8.86683 7.63814C8.68642 7.5018 8.49918 7.31452 8.30511 7.076C8.11105 6.83743 7.89218 6.50404 7.64843 6.07579C7.40486 5.64754 7.15214 5.1414 6.89042 4.55738L6.67388 4.13383C6.53851 3.86135 6.35359 3.4646 6.11894 2.94394C5.88415 2.42307 5.67661 1.91924 5.4962 1.43253C5.42409 1.22812 5.31575 1.0725 5.17137 0.965413L5.10361 0.921483C5.05857 0.882616 4.98626 0.841346 4.88707 0.797365C4.78774 0.753435 4.68409 0.721932 4.57571 0.70255L0.866541 0.731598C0.487513 0.731598 0.230338 0.824214 0.0949232 1.00919L0.0407288 1.09669C0.0136553 1.14543 0 1.22326 0 1.3304C0 1.43749 0.0270735 1.56892 0.0812679 1.72454C0.622738 3.09716 1.21157 4.42093 1.84778 5.69607C2.48398 6.97121 3.03683 7.99837 3.50599 8.77663C3.97525 9.55545 4.45357 10.2905 4.94094 10.9814C5.42831 11.6726 5.75091 12.1155 5.90875 12.3101C6.06679 12.505 6.19092 12.6508 6.28115 12.7481L6.61964 13.0985C6.83622 13.3321 7.15428 13.612 7.57394 13.938C7.9937 14.2642 8.4584 14.5854 8.9683 14.902C9.47828 15.2181 10.0716 15.476 10.7485 15.6755C11.4253 15.8752 12.0841 15.9554 12.7249 15.9167H14.2817C14.5975 15.8873 14.8367 15.7802 14.9992 15.5954L15.0531 15.5222C15.0893 15.4641 15.1232 15.3739 15.1545 15.2524C15.1862 15.1307 15.2019 14.9967 15.2019 14.8509C15.1927 14.4324 15.2222 14.0553 15.2897 13.7195C15.3572 13.3838 15.4341 13.1307 15.5201 12.9602C15.6061 12.7899 15.7031 12.6462 15.8111 12.5297C15.9193 12.413 15.9964 12.3423 16.0416 12.3179C16.0865 12.2934 16.1224 12.2768 16.1495 12.2668C16.3661 12.189 16.621 12.2644 16.9146 12.4933C17.2079 12.7221 17.4831 13.0045 17.7404 13.3402C17.9977 13.6762 18.3067 14.0532 18.6676 14.4716C19.0288 14.8903 19.3446 15.2015 19.6152 15.4062L19.8858 15.5814C20.0666 15.6983 20.3012 15.8054 20.5901 15.9027C20.8784 16 21.131 16.0243 21.3479 15.9757L24.8133 15.9174C25.1561 15.9174 25.4228 15.8562 25.612 15.7347C25.8015 15.6131 25.9141 15.479 25.9504 15.3332C25.9867 15.1873 25.9886 15.0217 25.9573 14.8365C25.9252 14.6519 25.8936 14.5227 25.8621 14.4498Z" fill="#6DA1BD"/>
</svg>
