<svg width="24" height="24" viewBox="0 0 24 24" fill="none" xmlns="http://www.w3.org/2000/svg">
<path d="M12.002 0.563232L2.48802 9.23404C2.00784 9.67178 1.62428 10.2049 1.36183 10.7993C1.09939 11.3937 0.963846 12.0363 0.963867 12.686L0.963867 23.4368H19.795C20.655 23.4368 21.4799 23.0951 22.088 22.4869C22.6962 21.8788 23.0379 21.054 23.0379 20.1939V10.6274L12.002 0.563232ZM21.5707 20.1905C21.5701 20.6613 21.3829 21.1126 21.05 21.4455C20.7171 21.7784 20.2658 21.9657 19.795 21.9663H9.581V11.844H14.8222C15.1601 11.3809 15.4558 10.8884 15.7056 10.3724H8.1094V21.9663H2.43435V12.6849C2.43492 12.2398 2.52807 11.7997 2.70787 11.3926C2.88768 10.9854 3.15021 10.6201 3.47878 10.3198L12.002 2.55258L21.5707 11.2748V20.1905Z" fill="white"/>
<path d="M13.8238 13.007C12.3577 14.471 10.4633 15.4299 8.41538 15.7446C6.36749 16.0592 4.27261 15.7133 2.43457 14.7571V16.3852C3.9939 17.069 5.68848 17.3887 7.38976 17.3201C9.09105 17.2514 10.7544 16.7962 12.2535 15.989C13.7527 15.1817 15.0483 14.0437 16.0421 12.6611C17.0359 11.2786 17.7018 9.68784 17.9892 8.00961L16.6541 6.79297C16.4992 9.13994 15.4927 11.3496 13.8238 13.007Z" fill="#A9CADC"/>
<path d="M21.5704 16.0978V14.6262C19.6331 14.6298 17.7764 15.4018 16.4078 16.773C15.0392 18.1441 14.2705 20.0022 14.2705 21.9395C14.2705 21.9484 14.2705 21.9574 14.2705 21.9663H15.741C15.741 21.9574 15.741 21.9484 15.741 21.9395C15.7428 20.3929 16.3571 18.9099 17.4496 17.8151C18.5421 16.7203 20.0237 16.1028 21.5704 16.0978Z" fill="#FFBCA0"/>
</svg>
