<svg xmlns="http://www.w3.org/2000/svg" width="22" height="23" fill="none">
    <path fill="#6DA1BD" fill-rule="evenodd"
          d="M11 9.77a2.647 2.647 0 0 0-2.636 2.659A2.647 2.647 0 0 0 11 15.087a2.647 2.647 0 0 0 2.636-2.658A2.647 2.647 0 0 0 11 9.77ZM7.375 12.43c0-2.011 1.62-3.648 3.625-3.648s3.625 1.636 3.625 3.648c0 2.01-1.62 3.647-3.625 3.647s-3.625-1.636-3.625-3.647Z"
          clip-rule="evenodd"/>
    <path fill="#6DA1BD" fill-rule="evenodd"
          d="M7.007 7.617H3.393v10.145h15.214V7.617h-3.614l-.659-2.146H7.666l-.66 2.146ZM6.82 4.328h8.358l.659 2.146h3.912v12.43H2.25V6.475h3.912l.66-2.146Z"
          clip-rule="evenodd"/>
    <path fill="#6DA1BD" d="M4.64 8.427h2.286V9.57H4.641V8.427ZM16.464 8.427h1.143V9.57h-1.143V8.427Z"/>
</svg>