<?xml version="1.0" standalone="no"?>
<!DOCTYPE svg PUBLIC "-//W3C//DTD SVG 20010904//EN"
 "http://www.w3.org/TR/2001/REC-SVG-20010904/DTD/svg10.dtd">
<svg version="1.0" xmlns="http://www.w3.org/2000/svg"
 width="129.000000pt" height="129.000000pt" viewBox="0 0 129.000000 129.000000"
 preserveAspectRatio="xMidYMid meet">
<metadata>
Created by potrace 1.14, written by Peter Selinger 2001-2017
</metadata>
<g transform="translate(0.000000,129.000000) scale(0.100000,-0.100000)"
fill="#000000" stroke="none">
<path d="M528 1188 c-62 -57 -120 -110 -128 -118 -39 -36 -219 -201 -263 -241
-27 -23 -61 -66 -75 -93 l-27 -51 -3 -337 -3 -338 38 -1 c338 -5 1024 2 1046
10 46 18 88 54 110 96 21 38 22 56 25 325 3 268 2 286 -16 305 -18 19 -180
169 -225 208 -12 10 -49 44 -82 75 -34 31 -106 98 -160 147 -54 50 -104 96
-111 103 -11 11 -33 -5 -126 -90z m188 -76 c33 -31 89 -83 125 -116 35 -32 64
-63 64 -70 -2 -31 -19 -96 -37 -138 l-20 -48 -209 0 -209 0 -1 -42 c0 -24 -1
-95 -2 -158 l-2 -115 -115 1 c-77 1 -128 6 -155 16 l-40 15 0 110 c1 106 2
112 30 148 15 21 45 53 64 70 20 18 52 48 72 66 20 19 83 77 140 129 57 52
126 116 154 142 27 26 57 48 65 48 8 -1 42 -26 76 -58z m329 -303 c29 -27 69
-65 89 -82 l36 -32 -1 -107 -1 -108 -37 -6 c-20 -3 -68 -21 -107 -40 -120 -56
-206 -162 -236 -292 l-13 -52 -132 0 -133 0 0 138 0 137 50 18 c108 39 233
132 303 227 37 50 94 170 102 213 4 20 12 37 17 37 5 0 34 -23 63 -51z m-255
-156 c-1 -12 -61 -74 -107 -110 -36 -29 -152 -93 -167 -93 -3 0 -6 47 -6 105
l0 105 140 0 c77 0 140 -3 140 -7z m379 -370 c-2 -88 -5 -110 -23 -136 -33
-48 -59 -57 -179 -57 l-109 0 7 32 c16 77 72 163 138 210 41 29 137 67 154 61
10 -4 13 -30 12 -110z m-970 67 c29 -5 93 -10 142 -10 l88 0 -2 -122 -2 -123
-157 -3 -158 -3 0 141 c0 130 1 141 18 136 9 -3 41 -10 71 -16z"/>
</g>
</svg>
